<?xml version="1.0" standalone="no"?>
<!DOCTYPE svg PUBLIC "-//W3C//DTD SVG 20010904//EN"
 "http://www.w3.org/TR/2001/REC-SVG-20010904/DTD/svg10.dtd">
<svg version="1.0" xmlns="http://www.w3.org/2000/svg"
 width="1932.000000pt" height="1932.000000pt" viewBox="0 0 1932.000000 1932.000000"
 preserveAspectRatio="xMidYMid meet">
<metadata>
Created by potrace 1.14, written by Peter Selinger 2001-2017
</metadata>
<g transform="translate(0.000000,1932.000000) scale(0.100000,-0.100000)"
fill="#000000" stroke="none">
<path d="M4850 19315 c0 -8 32 -57 48 -73 7 -8 20 -28 29 -45 9 -18 26 -43 39
-56 13 -13 21 -28 18 -33 -4 -6 -2 -13 3 -17 5 -3 29 -28 53 -54 36 -40 39
-47 19 -39 -13 5 -70 24 -126 43 -127 41 -137 37 -131 -57 4 -70 9 -68 -78
-25 -72 35 -165 51 -270 46 -72 -4 -108 -1 -143 11 -232 79 -700 152 -781 122
-15 -6 -88 -7 -175 -3 l-150 7 24 -26 24 -26 -109 0 c-103 0 -111 2 -136 25
-26 24 -32 25 -166 25 -132 0 -140 -1 -160 -23 -12 -13 -22 -31 -22 -40 0 -10
-8 -17 -20 -17 -24 0 -28 -41 -5 -60 8 -6 13 -17 12 -22 -1 -6 28 -27 64 -47
37 -20 73 -41 80 -47 8 -6 30 -19 49 -29 19 -10 51 -30 70 -45 19 -15 41 -25
49 -22 8 3 11 0 7 -7 -4 -6 -3 -11 2 -11 8 0 123 -85 185 -135 9 -8 22 -15 29
-15 6 0 9 -3 5 -6 -3 -3 15 -17 40 -31 39 -20 53 -23 82 -16 20 5 59 7 87 5
50 -4 51 -4 40 -28 -6 -13 -23 -26 -38 -30 -16 -3 -28 -10 -28 -15 0 -11 93
-85 132 -105 17 -9 27 -21 25 -29 -4 -9 1 -11 16 -8 16 3 18 2 8 -5 -11 -8
-11 -11 0 -16 8 -3 3 -4 -10 -2 -29 6 -62 -21 -41 -34 8 -5 15 -16 16 -24 1
-9 -2 -13 -8 -10 -5 3 -7 8 -5 11 7 6 -42 53 -56 53 -7 0 -6 -4 3 -10 11 -8 8
-9 -12 -6 -16 3 -28 0 -28 -6 0 -7 -14 -8 -37 -5 -25 4 -33 3 -24 -3 11 -6 4
-9 -25 -12 -33 -2 -39 -6 -38 -25 0 -12 -3 -20 -8 -17 -4 3 -8 0 -8 -7 0 -10
-3 -10 -12 -1 -20 20 -29 14 -11 -7 9 -11 20 -18 23 -16 4 2 7 -2 7 -9 0 -8
-7 -12 -15 -8 -11 4 -13 1 -7 -8 5 -9 4 -11 -4 -6 -6 4 -9 12 -6 17 4 5 0 9
-7 9 -8 0 -38 16 -68 36 -52 33 -59 35 -115 30 -57 -6 -100 -13 -100 -16 0 -1
-9 -3 -20 -5 -11 -2 -42 -7 -70 -13 -27 -6 -85 -10 -128 -10 -43 0 -90 -4
-105 -10 -15 -6 -36 -14 -47 -18 -11 -4 -24 -9 -30 -9 -5 -1 -17 -5 -25 -8 -8
-3 -45 -15 -82 -27 -37 -12 -83 -32 -103 -46 -20 -13 -40 -24 -46 -24 -6 0 -8
-4 -5 -9 8 -12 -57 -32 -209 -66 -142 -32 -253 -66 -352 -107 l-73 -30 0 -110
c0 -108 8 -138 39 -138 6 0 8 -7 5 -15 -4 -9 0 -15 7 -16 8 0 25 -3 39 -5 16
-3 29 2 38 13 15 21 65 22 231 4 58 -6 183 -13 276 -14 131 -3 190 -8 260 -25
50 -11 140 -31 200 -42 61 -12 120 -28 132 -36 12 -8 26 -14 31 -14 6 0 31 29
57 65 46 62 91 102 102 91 10 -9 -6 -70 -31 -118 -21 -42 -22 -48 -8 -48 10 0
60 -3 112 -6 52 -2 107 -4 123 -4 15 0 64 -9 109 -20 46 -12 132 -24 200 -27
113 -6 118 -7 102 -24 -9 -10 -13 -22 -10 -28 4 -5 -3 -12 -14 -16 -11 -3 -20
-11 -20 -16 0 -5 -9 -9 -20 -9 -11 0 -20 -5 -20 -11 0 -5 -4 -7 -10 -4 -5 3
-16 3 -22 -2 -7 -4 -17 -8 -23 -9 -5 -1 -32 -13 -60 -25 -27 -13 -52 -24 -55
-24 -3 -1 -36 -17 -75 -34 -38 -18 -113 -53 -165 -77 -99 -47 -131 -63 -295
-151 -102 -55 -221 -113 -308 -152 -49 -22 -113 -66 -222 -154 -124 -101 -134
-110 -128 -120 3 -6 1 -7 -5 -3 -6 3 -16 -3 -22 -14 -6 -11 -18 -20 -26 -20
-9 0 -12 -5 -8 -12 5 -8 2 -9 -10 -5 -9 4 -15 3 -11 -2 3 -5 -7 -22 -22 -38
-151 -159 -179 -193 -157 -193 3 0 27 19 54 42 39 33 59 43 92 46 24 1 247 5
497 8 l454 5 20 27 c12 15 54 61 95 102 54 54 69 65 53 40 -11 -19 -26 -34
-32 -32 -6 1 -7 -2 -4 -8 4 -6 1 -19 -7 -28 -18 -21 -58 -91 -58 -101 0 -12
143 -29 162 -20 9 5 32 9 50 9 l33 -1 -40 -23 c-92 -55 -115 -88 -95 -140 16
-43 127 -87 300 -118 36 -7 67 -13 69 -14 2 -2 -6 -21 -18 -44 -11 -22 -21
-47 -21 -54 0 -12 -54 -64 -130 -126 -29 -23 -32 -32 -39 -100 l-7 -75 -8 49
c-12 78 -13 78 -56 50 -26 -17 -40 -35 -44 -57 -6 -28 -8 -30 -17 -14 -10 16
-13 17 -32 4 -12 -8 -47 -38 -77 -67 -30 -29 -82 -73 -115 -98 -33 -26 -61
-50 -63 -54 -2 -4 -11 -8 -19 -8 -9 0 -13 -6 -10 -15 4 -8 1 -17 -5 -21 -7 -4
-8 -3 -4 4 14 24 -5 11 -39 -25 -52 -56 -96 -151 -95 -204 0 -24 1 -53 1 -64
l0 -20 15 20 c15 19 15 18 9 -10 -5 -21 -4 -26 3 -16 8 11 14 9 31 -8 15 -15
29 -20 42 -16 20 7 49 -9 49 -26 0 -5 -8 -9 -17 -9 -14 0 -13 -3 5 -20 12 -12
22 -25 22 -30 0 -4 16 -14 36 -20 41 -14 100 -7 181 21 31 10 79 19 107 19 28
0 67 4 86 9 19 5 61 12 92 16 l57 6 -19 52 c-19 52 -19 52 0 27 11 -14 20 -30
20 -36 0 -22 47 -37 80 -25 18 6 37 8 43 4 6 -3 7 -1 3 5 -4 7 -1 12 9 12 9 0
13 -4 10 -10 -3 -5 -1 -10 4 -10 6 0 11 7 11 15 0 8 5 15 10 15 7 0 8 -13 4
-35 -5 -30 -4 -35 13 -35 18 0 20 -7 19 -65 -1 -36 -4 -65 -8 -65 -5 0 -8 -14
-8 -30 0 -24 -6 -33 -27 -42 -16 -6 -32 -10 -37 -9 -5 1 -6 -5 -2 -14 3 -9 6
-23 6 -31 0 -9 5 -12 10 -9 6 4 8 11 4 16 -6 10 13 39 25 39 13 0 11 -74 -3
-95 -8 -13 -52 -114 -96 -226 -45 -112 -86 -210 -93 -217 -6 -7 -11 -24 -12
-36 0 -13 -8 -31 -17 -40 -10 -9 -15 -24 -12 -34 5 -15 4 -15 -6 1 -6 9 -8 26
-5 37 5 15 3 18 -9 14 -19 -7 -21 -25 -4 -42 6 -6 9 -15 5 -18 -10 -10 -39 25
-31 37 4 7 1 10 -7 7 -8 -3 -13 -14 -12 -26 2 -14 -6 -23 -28 -31 -16 -5 -37
-17 -45 -26 -8 -8 -29 -15 -45 -15 -23 0 -29 4 -29 22 0 20 -1 21 -20 3 -19
-17 -21 -17 -40 0 -19 18 -20 17 -20 -3 0 -17 6 -22 25 -22 l25 0 -6 -117 c-4
-65 -11 -119 -16 -121 -4 -2 -8 -27 -8 -55 0 -29 -5 -59 -10 -67 -9 -13 -10
-13 -10 0 0 13 -1 13 -10 0 -5 -8 -10 -43 -10 -77 0 -34 -4 -65 -10 -68 -5 -3
-10 -1 -10 5 0 6 -4 9 -9 6 -11 -7 -20 -66 -10 -66 11 0 4 -78 -11 -115 -6
-16 -13 -68 -13 -115 -1 -47 -6 -88 -12 -92 -5 -4 -10 -18 -10 -32 -1 -13 -8
-33 -16 -42 -9 -11 -9 -15 -1 -10 16 9 15 5 -4 -35 -9 -20 -13 -24 -10 -11 2
12 1 22 -4 22 -4 0 -10 -13 -12 -29 -2 -17 -1 -28 4 -25 14 9 9 -13 -7 -26 -8
-7 -15 -21 -15 -31 0 -10 -5 -21 -11 -25 -6 -3 -8 -18 -5 -33 3 -14 3 -20 0
-13 -3 6 -12 12 -20 12 -8 0 -14 4 -14 8 0 5 -7 17 -16 28 -15 18 -15 18 -5
-3 16 -32 13 -41 -5 -15 -8 12 -26 22 -39 22 -13 0 -27 5 -30 10 -3 6 -15 10
-26 10 -11 0 -30 6 -42 14 -12 8 -39 17 -59 20 -29 5 -38 12 -38 26 0 13 -7
20 -20 20 -11 0 -23 7 -26 15 -4 8 -12 15 -20 15 -8 0 -13 10 -13 23 1 12 -2
37 -6 55 -5 21 -4 32 4 32 6 0 11 18 11 45 0 31 8 55 26 82 14 21 29 38 32 37
8 0 23 12 50 38 9 9 40 23 67 32 42 14 55 25 79 64 16 26 31 41 33 35 6 -18
23 -16 23 2 0 8 -4 15 -10 15 -6 0 -10 32 -10 75 0 43 4 75 10 75 6 0 10 20
10 44 0 27 6 48 16 56 8 7 14 25 12 38 -4 33 -28 41 -29 10 l0 -23 -9 23 c-10
24 -40 30 -40 8 0 -8 -9 -18 -21 -21 -15 -5 -19 -14 -17 -33 3 -23 -1 -27 -26
-32 -17 -3 -29 -9 -27 -15 4 -19 -8 -47 -18 -40 -6 3 -11 1 -11 -4 0 -6 -11
-21 -25 -33 -14 -12 -23 -29 -20 -37 6 -19 -4 -35 -27 -44 -10 -3 -18 -16 -18
-27 0 -13 -10 -24 -25 -30 -14 -5 -29 -20 -34 -32 -17 -43 -24 -63 -28 -83 -3
-19 -20 -37 -47 -50 -8 -3 -7 -7 2 -11 13 -6 17 -80 5 -86 -8 -3 -43 -62 -43
-72 0 -3 11 -6 24 -6 29 0 26 -25 -8 -61 -19 -20 -21 -30 -15 -59 5 -21 4 -36
-1 -38 -6 -2 -10 -21 -10 -43 0 -32 -3 -39 -20 -39 -15 0 -20 -7 -20 -27 0
-38 -54 -88 -103 -97 -33 -6 -38 -4 -47 16 -8 21 -9 21 -10 3 -1 -19 -2 -19
-12 3 -6 12 -18 22 -26 22 -11 0 -13 17 -10 97 3 87 1 98 -14 101 -12 2 -18
13 -18 33 0 27 -2 29 -40 29 -22 0 -40 -4 -40 -10 0 -5 -11 -10 -25 -10 -18 0
-28 -7 -35 -25 -5 -14 -13 -25 -17 -24 -21 3 -53 -15 -53 -31 0 -10 -7 -23
-15 -30 -12 -10 -15 -10 -15 1 0 10 -3 10 -12 1 -8 -8 -8 -15 1 -26 7 -8 10
-19 7 -25 -3 -5 3 -7 15 -4 l20 6 -20 -39 c-15 -27 -17 -40 -9 -45 8 -5 7 -14
-5 -33 -9 -14 -17 -36 -17 -49 0 -14 -7 -30 -15 -37 -37 -31 -1 -63 55 -50 19
4 29 8 22 9 -23 2 -9 46 15 49 13 2 23 -1 23 -7 0 -6 7 -11 15 -11 8 0 15 4
15 8 0 4 13 13 29 19 24 8 32 8 45 -5 14 -14 17 -14 37 4 22 19 22 19 16 -5
l-6 -23 25 22 c22 21 25 22 41 7 11 -9 28 -13 44 -10 16 3 30 -1 38 -11 8 -9
22 -16 32 -16 10 0 21 -4 24 -10 3 -5 15 -10 25 -10 10 0 32 -13 48 -30 17
-16 35 -30 41 -30 6 0 11 -4 11 -10 0 -5 11 -10 24 -10 16 0 26 -7 29 -21 4
-14 11 -20 21 -16 9 4 22 -1 28 -9 7 -8 21 -23 31 -32 9 -9 17 -22 17 -29 0
-8 11 -18 24 -24 13 -6 27 -20 29 -30 3 -11 12 -19 21 -19 9 0 16 -8 16 -17 1
-15 3 -13 13 5 7 12 17 19 21 15 5 -4 5 3 1 17 -7 22 -6 23 9 8 15 -15 14 -22
-12 -86 -15 -39 -34 -77 -40 -85 -7 -8 -10 -21 -7 -28 7 -19 -40 -131 -50
-121 -5 4 -5 1 -1 -5 10 -18 -25 -127 -36 -111 -4 7 -5 -2 -1 -21 5 -27 3 -32
-7 -26 -8 5 -11 4 -6 -3 3 -6 -25 -111 -63 -234 -116 -373 -248 -763 -253
-748 -3 10 -6 7 -10 -8 -4 -12 -2 -20 3 -16 5 3 9 0 9 -6 0 -6 -7 -13 -15 -16
-8 -4 -15 -10 -15 -16 0 -5 4 -7 9 -3 6 3 6 -8 0 -27 -6 -18 -13 -41 -16 -51
-5 -15 -8 -16 -14 -5 -6 9 -8 3 -8 -17 0 -47 -4 -65 -13 -65 -5 0 -6 -10 -3
-22 5 -18 4 -20 -4 -8 -8 12 -10 9 -10 -15 1 -16 -35 -174 -80 -350 -45 -176
-98 -390 -117 -475 -33 -150 -63 -247 -119 -395 -14 -38 -28 -77 -30 -85 -2
-8 -9 -28 -16 -45 -7 -16 -12 -33 -11 -37 1 -5 -3 -8 -9 -8 -6 0 -9 -6 -6 -13
3 -8 -1 -14 -10 -14 -9 0 -13 7 -10 19 3 10 1 16 -3 13 -9 -5 -23 -58 -20 -72
1 -5 7 -7 12 -5 6 2 8 -4 4 -13 -3 -9 -6 -24 -7 -33 -1 -10 -4 -7 -9 8 -5 15
-8 18 -9 9 -1 -9 -8 -19 -16 -23 -8 -3 -15 -12 -15 -20 0 -9 -9 -20 -20 -26
-11 -6 -20 -17 -20 -25 0 -9 -10 -15 -25 -15 -19 0 -25 -6 -27 -22 -1 -13 -2
-30 -4 -38 -1 -8 -2 -21 -3 -27 -1 -7 -8 -13 -16 -13 -8 0 -15 -4 -15 -10 0
-5 8 -10 18 -10 16 -1 16 -1 0 -11 -17 -9 -18 -244 -18 -4529 l0 -4520 7113 0
7114 0 13 58 c8 31 16 59 19 62 3 3 16 28 27 57 23 56 21 64 -24 78 -15 4 -21
12 -18 21 3 8 -2 22 -12 32 -39 40 -66 131 -56 192 4 22 20 60 37 83 17 23 23
36 13 28 -13 -11 -20 -11 -28 -3 -15 15 -31 15 -22 0 4 -6 3 -8 -4 -4 -6 3
-14 -3 -17 -15 -7 -20 -8 -21 -17 -5 -5 10 -7 20 -4 23 3 4 6 0 6 -8 0 -8 6
-4 16 9 8 12 12 28 8 35 -4 6 5 1 20 -13 26 -24 28 -24 41 -7 7 10 15 13 16 8
3 -7 18 -5 44 4 49 17 112 19 117 3 5 -15 28 -1 28 17 0 7 -8 16 -17 19 -10 3
3 4 29 3 46 -2 46 -1 53 33 3 19 9 76 13 125 6 82 7 86 13 45 5 -33 7 -20 6
50 0 52 3 103 7 112 12 27 0 49 -21 41 -17 -6 -17 -5 0 15 12 12 16 26 11 34
-5 9 -2 9 10 -2 11 -8 14 -16 7 -18 -6 -2 -11 -8 -11 -14 0 -6 9 -3 21 8 12
11 19 27 17 39 -3 15 1 21 15 22 26 2 47 22 47 44 0 11 6 19 13 19 8 0 22 9
31 19 10 11 24 17 31 15 7 -3 23 4 35 16 17 17 29 21 54 16 21 -4 26 -3 16 3
-12 8 -9 12 12 20 26 10 55 45 76 94 6 15 16 27 22 27 7 0 4 7 -5 16 -12 12
-13 19 -5 24 7 4 13 26 13 49 1 22 6 41 10 41 5 0 5 10 2 21 -4 12 -3 19 2 16
5 -3 7 9 5 27 -3 28 1 37 30 58 47 36 85 43 93 19 3 -11 12 -22 20 -25 8 -3
15 -14 15 -24 0 -11 7 -25 15 -32 8 -7 15 -23 15 -37 0 -23 36 -102 53 -114 4
-3 9 -21 11 -40 1 -19 8 -45 15 -57 7 -13 10 -29 8 -36 -7 -17 11 -115 25
-144 9 -17 9 -46 0 -120 -14 -115 -15 -162 -3 -162 5 0 7 -17 4 -37 -4 -34 -2
-40 25 -55 16 -10 35 -31 42 -47 7 -17 21 -33 31 -36 10 -4 19 -10 19 -14 0
-4 17 -13 37 -20 60 -22 103 -87 103 -155 0 -19 6 -37 13 -39 17 -7 -30 -46
-66 -54 -29 -6 -47 -23 -25 -23 7 0 2 -9 -11 -19 -17 -13 -22 -23 -16 -39 5
-19 2 -22 -19 -22 -32 0 -34 -22 -3 -35 12 -6 23 -20 25 -33 2 -12 12 -28 23
-35 10 -6 19 -17 19 -23 0 -7 12 -15 27 -19 18 -4 23 -9 15 -14 -10 -6 -9 -11
3 -21 12 -10 13 -16 4 -26 -6 -8 -9 -15 -5 -15 3 -1 11 -3 16 -4 6 -1 15 -3
21 -4 5 0 7 -6 3 -13 -4 -6 -8 -27 -10 -47 -1 -20 0 -28 3 -19 9 34 25 19 19
-17 l-7 -35 131 0 130 0 0 100 0 100 25 0 c23 0 25 4 25 40 0 29 4 40 15 40
11 0 15 -11 15 -40 0 -29 -4 -40 -15 -40 -8 0 -15 -9 -15 -20 0 -17 7 -20 45
-20 41 0 45 -2 51 -28 3 -15 10 -37 15 -50 8 -19 11 -21 29 -10 20 13 20 22
20 786 l0 773 -22 -2 c-48 -4 -89 1 -83 11 3 5 -2 10 -13 10 -31 0 -63 69 -59
127 2 27 8 47 14 46 6 -1 14 9 17 23 5 18 22 31 62 49 31 14 63 25 70 25 12 0
14 53 14 305 l0 305 -52 -6 -53 -6 -43 49 c-61 68 -62 70 -74 104 -8 23 -13
28 -20 17 -7 -9 -8 -7 -4 7 3 11 -3 47 -13 80 -11 33 -20 53 -21 45 -2 -23
-18 20 -19 51 -1 15 -8 32 -17 39 -8 7 -14 23 -13 34 4 33 -22 130 -37 139 -8
4 -14 23 -14 42 0 19 -5 37 -10 40 -6 3 -7 17 -4 29 3 13 -2 40 -10 61 -9 21
-16 50 -16 66 0 15 -4 31 -10 34 -5 3 -10 -3 -10 -14 0 -12 -4 -21 -10 -21 -6
0 -10 32 -10 76 0 41 -5 85 -11 96 -8 15 -8 19 0 14 16 -10 14 6 -5 32 -8 12
-11 22 -6 22 6 0 8 9 5 20 -3 10 -10 18 -17 17 -6 -1 -12 15 -14 38 -2 22 -9
46 -15 54 -18 21 -46 235 -40 297 5 47 3 54 -12 54 -13 0 -16 6 -11 23 6 25
-8 170 -19 199 -5 12 -2 18 8 18 9 0 17 14 21 40 3 22 10 40 14 40 5 0 9 7 9
15 0 8 -4 12 -9 9 -13 -8 -10 4 14 49 13 23 24 60 24 82 3 68 3 68 24 62 17
-4 20 0 20 25 0 16 -5 39 -11 51 -9 16 -9 22 0 25 6 2 11 15 11 28 0 17 -6 24
-20 24 -17 0 -20 7 -20 42 0 23 3 38 7 34 4 -4 8 -14 8 -22 0 -7 5 -14 10 -14
8 0 10 26 6 74 -1 6 -8 1 -16 -10 -18 -24 -19 -14 -1 21 13 26 14 26 21 6 18
-58 44 9 37 97 -3 43 0 67 8 75 10 9 11 7 5 -10 -4 -14 -2 -23 4 -23 6 0 11
11 11 25 0 14 5 25 11 25 8 0 7 5 -1 15 -10 12 -15 13 -20 4 -17 -27 -17 58 0
96 10 22 20 49 23 60 3 11 3 -14 0 -55 l-5 -75 19 28 20 27 12 -27 c12 -26 14
-26 25 -10 7 9 17 17 22 17 12 0 64 49 64 60 0 5 13 24 29 42 31 36 61 99 61
129 0 11 4 19 9 19 5 0 11 12 14 28 9 42 71 102 107 102 l30 0 0 1875 c0 1426
-3 1875 -12 1875 -6 0 -19 -7 -29 -16 -9 -8 -28 -17 -41 -19 -12 -2 -59 -11
-103 -20 -44 -9 -94 -18 -110 -21 -50 -10 -210 32 -249 65 -13 11 -16 11 -16
1 0 -9 -7 -7 -20 5 -11 10 -21 16 -23 14 -1 -2 -10 -21 -20 -42 -19 -42 -22
-67 -8 -67 6 0 10 -8 10 -17 0 -10 1 -48 2 -86 1 -50 -2 -72 -15 -85 -9 -10
-16 -24 -16 -30 0 -6 -11 -19 -25 -28 -13 -9 -27 -24 -30 -35 -4 -10 -13 -19
-21 -19 -8 0 -14 -4 -14 -8 0 -4 -28 -16 -62 -26 -35 -9 -77 -24 -95 -32 -38
-17 -70 -18 -76 -1 -3 6 -6 1 -7 -13 -1 -23 -2 -23 -9 -5 -15 37 73 448 92
429 4 -4 7 1 7 11 0 23 28 44 60 45 15 0 32 6 38 12 10 10 17 10 32 0 17 -10
21 -10 26 3 4 8 4 21 1 29 -4 9 5 19 24 26 35 15 37 27 5 40 -13 5 -27 19 -31
30 -5 15 -13 20 -25 17 -14 -3 -22 4 -32 27 -7 17 -11 38 -10 46 2 13 1 13 -7
1 -7 -10 -9 -5 -10 20 -1 19 -2 45 -3 59 0 14 2 90 6 170 l6 146 -31 57 c-17
31 -35 57 -40 57 -6 0 -8 4 -5 8 3 5 -15 19 -39 31 -25 12 -45 27 -45 32 0 13
-28 11 -32 -3 -3 -8 -9 -8 -24 0 -18 11 -18 12 4 18 32 9 27 21 -14 28 -35 7
-35 7 -19 32 24 37 16 69 -16 67 -23 -1 -28 3 -32 30 -6 41 6 82 24 82 7 0 15
8 17 18 2 9 -2 17 -8 17 -8 0 -10 50 -10 166 1 91 -1 168 -4 171 -3 4 -6 15
-6 25 0 10 -6 18 -14 18 -14 0 -33 67 -22 78 3 3 6 -3 6 -13 0 -13 3 -15 13
-7 10 9 13 45 11 147 -1 74 2 135 6 135 5 0 11 -17 13 -37 2 -21 3 -14 1 15
-1 28 1 52 6 52 13 0 20 44 8 51 -14 9 -3 65 18 86 10 10 14 27 12 45 -3 15
-1 28 4 28 4 0 8 11 8 24 0 32 10 57 21 51 4 -3 13 4 19 15 6 11 15 18 19 15
5 -2 11 9 15 26 7 37 43 90 59 88 28 -3 39 2 34 15 -4 10 9 22 41 37 26 12 57
33 69 48 13 14 23 20 23 14 0 -18 27 -16 34 2 3 8 13 15 23 15 12 0 28 21 48
65 17 36 36 65 43 65 15 0 17 76 2 85 -17 11 -11 36 7 33 10 -2 22 6 27 18 5
11 22 28 38 37 28 16 31 16 76 -9 26 -14 51 -30 57 -35 5 -5 21 -9 35 -9 32 0
69 -34 48 -44 -7 -3 -2 -3 12 0 14 4 27 10 30 14 3 3 13 9 23 13 20 8 14 27
-9 27 -8 0 -14 7 -14 16 0 14 2 14 22 0 16 -12 36 -14 80 -9 40 4 58 2 58 -6
0 -6 17 -11 40 -11 57 0 55 27 -2 33 l-43 4 43 1 42 2 0 268 0 267 -27 13
c-15 6 -37 12 -49 12 -13 0 -26 5 -29 10 -3 6 -15 10 -26 10 -19 0 -30 7 -70
43 -10 9 -23 17 -29 17 -5 0 -10 11 -10 24 0 13 -7 26 -15 30 -10 4 -15 20
-15 50 0 28 -9 62 -24 90 -14 26 -20 46 -14 46 6 0 9 2 7 5 -5 4 -46 -5 -81
-20 -11 -4 -17 -1 -20 12 -3 16 -6 15 -28 -9 -13 -16 -30 -28 -37 -28 -7 0
-13 -8 -13 -19 0 -10 -7 -24 -15 -31 -20 -16 -19 -30 3 -46 15 -12 15 -15 2
-24 -13 -9 -13 -10 0 -11 8 -1 19 -1 23 0 5 1 6 -3 3 -8 -3 -5 1 -14 9 -21 8
-7 15 -18 15 -25 0 -7 7 -18 15 -25 9 -7 14 -19 11 -26 -2 -6 2 -20 9 -31 8
-10 15 -35 15 -55 0 -22 5 -38 11 -38 14 0 6 -120 -9 -129 -5 -3 -13 -26 -17
-50 -5 -31 -13 -45 -27 -49 -11 -2 -24 -15 -28 -28 -7 -17 -14 -22 -27 -17
-16 6 -16 5 -4 -10 12 -15 10 -18 -14 -27 -14 -5 -37 -10 -49 -10 -13 0 -29
-7 -36 -15 -7 -8 -31 -18 -53 -22 -22 -3 -47 -14 -56 -24 -17 -21 -41 -25 -41
-8 0 6 -6 9 -12 6 -7 -2 -12 -11 -10 -20 1 -9 -6 -22 -18 -29 -11 -7 -20 -16
-20 -19 0 -7 -69 -79 -76 -79 -2 0 -4 7 -4 16 0 12 -5 11 -20 -7 -11 -14 -19
-18 -20 -11 0 28 -23 5 -26 -28 -4 -36 -19 -60 -38 -60 -6 0 -13 -12 -14 -27
-2 -28 -30 -66 -42 -58 -4 3 -11 -6 -14 -20 -10 -40 -78 -68 -148 -60 -34 4
-64 14 -77 26 -23 22 -36 77 -26 116 3 15 8 57 11 93 2 36 8 66 14 68 7 3 7 8
1 15 -5 7 -13 27 -18 46 -5 19 -15 37 -22 39 -8 3 -11 0 -7 -7 4 -6 3 -11 -1
-11 -5 0 -13 10 -18 22 -6 13 -24 27 -42 32 -18 5 -33 13 -33 17 0 5 -5 9 -11
9 -5 0 -7 -5 -3 -11 4 -8 -1 -9 -17 -4 -13 4 -25 12 -27 16 -2 5 -9 9 -15 9
-7 0 -29 5 -50 11 -47 13 -140 105 -133 131 2 9 -1 19 -6 20 -11 4 -21 84 -22
168 0 70 46 151 107 186 49 29 75 36 140 40 l68 4 64 -66 c35 -36 67 -73 70
-84 3 -10 13 -21 23 -25 28 -11 122 -22 122 -14 0 10 60 30 71 23 5 -3 9 0 9
7 0 7 10 9 25 7 14 -3 23 -1 22 6 -1 6 10 12 24 14 15 2 37 14 50 28 12 13 28
24 34 24 7 0 23 16 36 35 13 19 27 35 32 35 4 0 7 7 7 15 0 7 7 18 17 23 10 6
14 16 10 26 -4 10 -1 19 7 22 14 5 6 46 -25 119 -7 17 -11 35 -9 40 2 6 2 37
1 69 -1 39 3 62 11 67 7 5 14 13 14 19 1 5 2 15 3 20 0 6 4 9 9 8 13 -2 47 15
55 29 5 8 16 11 26 8 13 -4 21 4 31 30 8 19 17 35 21 35 5 0 19 11 33 25 14
14 30 25 35 25 6 0 15 9 21 20 7 13 21 20 40 20 16 0 35 8 42 18 7 10 37 23
66 30 70 16 72 15 72 -8 0 -22 10 -26 26 -10 12 12 84 -52 84 -75 0 -8 9 -15
20 -15 17 0 20 -7 20 -41 0 -24 4 -38 10 -34 6 4 10 -12 10 -41 0 -41 2 -46
19 -41 12 3 21 -1 25 -12 3 -9 10 -23 14 -31 5 -8 17 -32 26 -52 11 -27 20
-36 31 -32 9 4 15 0 15 -9 0 -9 5 -19 10 -22 7 -4 10 241 10 744 l0 751 -22 0
c-31 0 -99 77 -92 104 7 31 -12 76 -33 77 -14 0 -12 3 5 10 33 13 23 30 -27
47 -30 10 -39 17 -30 23 10 6 9 15 -6 43 -24 44 -33 45 -37 5 l-3 -30 -34 25
c-19 14 -38 23 -42 21 -4 -3 -10 -1 -14 5 -11 18 -30 11 -50 -20 -11 -17 -28
-33 -37 -36 -9 -3 -20 -15 -24 -27 -3 -12 -14 -31 -23 -41 -12 -14 -13 -20 -3
-23 14 -5 17 -83 2 -83 -6 0 -10 -26 -10 -58 0 -47 4 -62 25 -84 18 -19 25
-38 25 -67 0 -44 11 -52 55 -39 16 4 37 8 45 8 13 0 13 -1 0 -10 -11 -7 -6
-10 20 -10 21 0 46 -9 63 -23 26 -21 28 -26 28 -106 0 -59 5 -88 15 -98 8 -8
17 -32 20 -54 4 -21 11 -39 16 -39 6 0 8 -22 6 -52 -3 -29 -3 -43 -1 -30 3 14
11 22 24 22 17 0 20 -6 18 -46 -2 -36 -7 -48 -21 -52 -21 -5 -24 -18 -5 -25
10 -4 10 -7 0 -18 -11 -11 -13 -11 -13 0 0 8 -6 11 -16 7 -10 -4 -19 4 -29 27
l-13 32 -4 -40 -3 -40 -58 -3 c-57 -3 -57 -3 -63 28 -5 21 -14 32 -31 36 -19
5 -22 9 -11 16 10 7 10 11 1 15 -7 2 -13 17 -13 33 0 16 -5 30 -11 32 -6 2
-12 27 -12 57 -1 45 -3 50 -14 36 -11 -16 -13 -13 -19 24 -4 22 -10 41 -15 41
-5 0 -9 22 -9 48 0 36 -5 54 -20 67 -11 10 -20 24 -20 32 0 7 -9 13 -20 13
-16 0 -20 7 -20 30 0 28 -2 30 -40 30 -30 0 -40 -4 -40 -16 0 -13 -6 -15 -27
-9 -16 4 -37 9 -48 10 -11 1 -21 9 -23 18 -5 24 -39 21 -45 -4 l-6 -22 -30 24
c-23 19 -30 32 -30 62 -1 33 2 37 24 37 31 0 32 12 3 25 -13 6 -24 20 -26 33
-2 12 -9 22 -15 22 -7 0 -23 9 -37 20 -14 11 -33 20 -42 20 -11 0 -18 8 -18
20 0 22 7 21 -195 25 -71 1 -142 8 -175 17 -101 29 -110 30 -110 13 0 -11 -11
-15 -42 -15 -41 1 -42 1 -19 14 29 16 12 31 -34 28 -33 -2 -109 21 -99 30 3 4
-4 12 -16 18 -12 6 -24 9 -28 6 -3 -3 -13 1 -23 10 -10 9 -26 14 -34 10 -9 -3
-23 1 -31 9 -11 10 -37 15 -85 15 l-69 0 0 30 c0 20 -5 30 -15 30 -10 0 -15
-10 -15 -30 0 -20 5 -30 15 -30 10 0 15 -11 15 -35 0 -19 5 -35 10 -35 6 0 10
-9 10 -19 0 -29 17 -34 26 -8 6 18 8 15 11 -20 2 -24 8 -43 14 -43 5 0 9 -18
9 -40 0 -28 -4 -40 -15 -40 -15 0 -32 -61 -21 -78 3 -5 0 -25 -6 -45 -9 -29
-17 -37 -34 -37 -13 0 -28 -9 -34 -20 -16 -30 -55 -42 -96 -31 -23 6 -34 6
-37 -2 -2 -8 -12 -6 -30 6 -17 11 -38 15 -54 12 -36 -6 -63 3 -63 21 0 8 -6
14 -12 14 -7 0 -21 14 -30 30 -9 17 -24 30 -33 30 -11 0 -15 11 -15 45 0 25
-4 45 -10 45 -14 0 -12 82 2 130 7 22 18 40 25 40 6 0 13 10 15 23 2 14 11 23
26 25 12 2 22 10 22 18 0 11 -17 14 -80 14 l-80 0 0 -40 c0 -38 -2 -40 -31
-40 -19 0 -28 -4 -23 -11 3 -6 17 -9 30 -6 21 4 24 0 24 -23 0 -23 -4 -27 -20
-23 -11 3 -27 -1 -36 -8 -13 -10 -17 -10 -24 0 -5 9 -10 10 -14 2 -4 -6 -2
-11 3 -11 17 0 15 -237 -1 -243 -10 -4 -10 -7 0 -18 8 -9 12 -47 12 -116 0
-62 4 -103 10 -103 14 0 13 -77 -1 -82 -16 -5 -17 -184 -1 -199 14 -15 17
-119 3 -119 -6 0 -12 17 -14 38 -2 20 -1 -10 1 -68 4 -86 8 -108 24 -121 19
-17 26 -89 8 -89 -6 0 -10 -33 -10 -80 0 -47 4 -80 10 -80 6 0 10 -18 10 -40
0 -22 4 -40 9 -40 13 0 18 -90 6 -98 -5 -4 -28 -7 -49 -7 -43 0 -62 -23 -27
-32 23 -6 29 -23 8 -23 -26 0 -67 25 -67 41 0 9 10 20 23 24 l22 8 -22 4 c-13
2 -23 11 -23 19 0 18 -14 18 -30 -1 -7 -8 -19 -15 -26 -15 -10 0 -14 -13 -14
-40 0 -39 1 -40 35 -40 28 0 35 -4 35 -20 0 -17 7 -20 40 -20 23 0 40 -5 40
-11 0 -8 17 -10 50 -7 35 4 53 1 61 -8 9 -11 6 -14 -12 -15 -13 -1 0 -6 29
-11 29 -5 50 -13 47 -18 -9 -15 7 -40 26 -40 10 0 19 -5 19 -11 0 -6 13 -29
29 -52 36 -51 59 -150 41 -172 -7 -8 -10 -15 -8 -15 3 0 0 -23 -7 -52 -12 -53
-30 -73 -37 -41 -3 10 -8 0 -12 -24 -6 -32 -12 -43 -29 -45 -15 -2 -23 -12
-27 -33 -3 -16 -10 -29 -15 -27 -5 2 -16 -19 -24 -47 -14 -47 -18 -51 -47 -51
-18 0 -38 -8 -49 -20 -10 -11 -24 -20 -31 -20 -7 0 -16 -9 -19 -20 -7 -21 -25
-28 -25 -10 0 6 -4 10 -10 10 -5 0 -10 -5 -10 -11 0 -5 -14 -24 -30 -42 -17
-18 -28 -37 -25 -44 2 -7 -7 -21 -20 -32 -14 -10 -25 -26 -25 -35 0 -16 -5
-18 -45 -20 -14 -1 -20 -8 -21 -26 -1 -14 -2 -34 -4 -45 -2 -17 -3 -17 -10 5
-7 23 -8 24 -14 5 -26 -71 -42 -95 -63 -95 -13 0 -23 -4 -23 -10 0 -5 5 -10
10 -10 6 0 10 -18 10 -40 0 -22 4 -40 9 -40 5 0 16 -3 25 -6 11 -4 16 -1 16
10 0 11 9 16 29 16 23 0 30 5 33 23 2 14 11 23 26 25 12 2 22 10 22 18 0 8 5
14 11 14 6 0 9 -7 5 -15 -4 -10 1 -15 15 -15 13 0 23 8 26 21 3 11 11 18 19
15 7 -3 16 -1 19 4 3 4 -1 10 -7 13 -7 2 4 9 24 16 21 7 42 9 48 6 6 -4 20 1
31 11 15 13 22 15 31 6 7 -7 21 -13 33 -13 20 -1 20 -1 0 -6 -16 -4 -13 -8 15
-17 24 -8 35 -17 33 -29 0 -12 4 -16 12 -13 8 3 19 -2 25 -9 7 -8 16 -13 20
-10 4 2 15 -4 24 -14 13 -15 14 -20 4 -24 -7 -3 -3 -6 10 -6 20 -1 28 -16 23
-45 -1 -4 7 -15 17 -25 11 -9 23 -31 27 -49 4 -18 13 -36 20 -38 19 -8 29
-108 14 -136 l-13 -23 -8 30 c-5 20 -5 14 -2 -17 5 -42 3 -48 -13 -48 -10 0
-28 -3 -40 -6 -19 -5 -23 -2 -23 15 0 14 6 21 20 21 11 0 20 7 20 15 0 23 -13
18 -48 -18 -30 -31 -31 -34 -16 -55 8 -12 25 -22 36 -22 21 0 21 -1 -5 -28
-15 -15 -27 -33 -27 -40 0 -18 61 -15 82 5 17 15 18 15 18 0 0 -10 5 -17 10
-17 6 0 10 9 10 20 0 11 5 20 10 20 6 0 10 -9 10 -20 0 -11 5 -20 10 -20 13 0
13 -77 -1 -82 -11 -4 37 -118 51 -118 12 0 19 -39 7 -43 -8 -2 -7 -14 3 -37
11 -26 11 -35 2 -38 -18 -6 -5 -21 34 -37 19 -8 37 -21 40 -30 3 -8 12 -15 20
-15 8 0 14 -5 14 -11 0 -6 6 -9 13 -6 21 8 48 -21 63 -65 4 -10 10 -18 14 -18
16 0 30 -64 30 -135 0 -88 -10 -166 -20 -160 -5 3 -6 -3 -3 -13 3 -11 -7 -31
-26 -51 -25 -27 -31 -42 -31 -77 0 -24 -4 -44 -10 -44 -5 0 -10 -13 -10 -30 0
-23 -4 -30 -20 -30 -18 0 -20 -7 -20 -62 0 -66 5 -81 30 -91 10 -4 8 -6 -7 -6
-20 -1 -23 -6 -23 -41 0 -33 3 -40 20 -40 14 0 20 7 20 21 0 18 2 19 15 9 8
-7 15 -16 15 -21 0 -5 -7 -9 -15 -9 -8 0 -15 -6 -15 -14 0 -7 -7 -19 -15 -26
-20 -16 -20 -60 0 -60 8 0 15 5 15 10 0 6 11 10 25 10 25 0 25 -1 25 -80 0
-79 0 -80 -25 -80 -14 0 -25 -4 -25 -10 0 -5 18 -10 40 -10 33 0 40 -3 40 -20
0 -17 -7 -20 -40 -20 l-40 0 -1 -62 c-1 -43 -3 -55 -8 -38 -9 33 -41 40 -41 8
0 -13 -7 -36 -15 -52 -13 -24 -13 -31 -3 -38 8 -5 3 -6 -14 -2 -22 5 -27 2
-30 -18 -2 -15 -11 -24 -25 -26 -13 -2 -23 -10 -23 -18 0 -8 -6 -14 -14 -14
-8 0 -16 -10 -18 -22 -2 -15 -11 -24 -25 -26 -32 -5 -29 -30 5 -34 l27 -4 -29
-9 c-21 -5 -31 -5 -34 3 -8 25 -40 12 -52 -20 l-12 -33 -8 25 c-7 23 -8 23 -9
3 -2 -33 -20 -37 -27 -6 -3 15 -10 42 -15 58 -5 18 -5 64 1 115 12 101 12 345
1 520 -8 132 -15 152 -70 213 -49 54 -120 72 -186 47 -40 -15 -122 -97 -167
-167 -22 -35 -44 -63 -49 -63 -25 0 -167 -336 -183 -435 -20 -115 -31 -165
-39 -165 -4 0 -6 -4 -2 -9 6 -10 -8 -132 -26 -225 -7 -34 -15 -53 -19 -46 -4
7 -6 -8 -5 -33 2 -25 -3 -74 -10 -109 -8 -35 -21 -97 -29 -138 -9 -41 -16 -91
-16 -111 0 -20 -3 -39 -6 -42 -4 -4 -8 -23 -9 -44 -4 -72 -17 -158 -27 -176
-5 -9 -6 -23 -2 -29 4 -6 3 -8 -4 -4 -6 3 -13 -2 -15 -11 -2 -10 -2 2 0 27 3
25 9 47 14 51 8 5 -3 53 -22 91 -5 10 -9 40 -9 67 0 31 -6 55 -15 65 -18 17
-20 36 -4 36 8 0 9 24 4 80 -5 52 -4 80 3 80 6 0 8 9 5 20 -3 11 -10 20 -15
20 -7 0 -9 37 -6 100 2 55 0 100 -4 100 -4 0 -7 31 -6 69 0 37 -2 73 -6 79 -3
6 -1 12 6 14 8 3 7 11 -5 28 -21 30 -22 50 -2 50 19 0 19 9 0 34 -15 20 -10
116 7 127 5 3 2 19 -6 35 -23 46 -45 132 -56 224 -5 47 -13 97 -16 113 -5 21
-3 27 10 27 12 0 16 10 16 39 0 22 -5 41 -12 44 -9 3 -7 9 7 20 19 14 19 16 3
22 -10 4 -18 13 -18 21 0 8 -5 14 -11 14 -10 0 -8 26 5 83 1 7 1 9 -1 5 -6
-10 -46 -10 -41 0 2 4 10 19 17 34 13 25 11 29 -22 70 -24 29 -36 54 -36 74 0
16 -2 54 -4 84 -3 30 -1 60 3 65 11 14 19 106 9 100 -15 -10 -25 29 -23 88 1
44 -2 60 -15 70 -27 19 -35 38 -20 48 12 7 11 14 -3 41 -9 18 -19 49 -22 68
-2 19 -10 55 -16 80 -6 25 -16 77 -21 115 -6 39 -12 81 -14 95 -2 14 -9 77
-16 140 -9 88 -16 120 -31 137 -13 14 -18 28 -13 42 4 12 0 30 -9 43 -21 30
-20 38 4 38 20 0 20 1 5 38 -9 20 -20 38 -25 40 -6 2 -10 18 -10 35 0 59 -10
77 -41 77 -31 0 -36 9 -18 27 14 14 -37 99 -63 106 -19 5 -26 -19 -8 -25 6 -2
-3 -15 -20 -30 -16 -14 -30 -22 -30 -17 0 12 -47 12 -55 0 -3 -5 3 -11 12 -14
16 -3 16 -5 -2 -11 -43 -16 -64 -29 -59 -37 2 -4 -5 -13 -16 -19 -15 -8 -20
-8 -20 2 0 9 -3 9 -12 0 -7 -7 -19 -12 -27 -12 -9 -1 -28 -18 -43 -39 -21 -32
-31 -38 -55 -35 -15 2 -20 1 -10 -2 20 -7 25 -80 5 -87 -7 -2 -10 -8 -6 -12 4
-4 15 -4 25 0 10 5 28 10 40 11 32 4 83 56 73 74 -7 12 -1 14 36 11 35 -2 44
-7 44 -22 0 -13 7 -19 24 -19 17 0 31 -10 43 -30 9 -16 23 -30 30 -30 15 0 18
-36 4 -44 -5 -3 -7 -14 -4 -25 3 -13 -5 -24 -29 -39 -49 -29 -137 -20 -175 19
-32 33 -53 37 -53 10 0 -10 -9 -21 -20 -24 -15 -4 -20 -14 -20 -40 0 -20 -6
-42 -12 -49 -7 -7 -15 -24 -16 -37 -2 -14 -10 -34 -17 -45 -7 -12 -16 -47 -19
-78 -3 -32 -10 -67 -17 -80 -9 -16 -9 -23 0 -26 16 -5 14 -22 -8 -68 -11 -22
-23 -53 -27 -69 -7 -26 -36 -65 -51 -65 -3 0 -21 -12 -40 -26 -20 -15 -53 -28
-76 -31 -23 -2 -49 -7 -57 -10 -8 -3 -39 -5 -69 -3 -31 1 -57 -3 -61 -10 -4
-6 -18 -12 -32 -14 -14 -1 -33 -9 -41 -18 -26 -25 -58 -142 -61 -218 -3 -63
-1 -70 15 -70 13 0 19 -7 19 -24 0 -28 24 -51 45 -42 9 3 23 2 33 -3 9 -5 87
-15 172 -21 141 -11 160 -15 206 -41 48 -27 52 -33 59 -74 3 -25 3 -54 0 -65
-10 -31 -63 -82 -76 -74 -9 5 -10 2 -6 -10 5 -12 -1 -19 -19 -26 -14 -6 -22
-14 -19 -20 3 -5 -5 -21 -19 -35 -22 -22 -32 -25 -68 -20 -56 7 -78 14 -78 26
0 5 -7 9 -15 9 -14 0 -19 12 -16 33 1 4 -12 10 -29 13 -16 4 -30 13 -30 20 0
8 -6 14 -13 14 -7 0 -24 8 -37 17 -14 10 -39 19 -56 20 -39 2 -97 -48 -119
-103 -9 -21 -20 -48 -25 -59 -14 -31 -40 -131 -56 -220 -8 -44 -20 -96 -26
-115 -7 -19 -13 -37 -13 -40 -1 -3 -5 -27 -9 -55 -4 -27 -14 -58 -22 -69 -8
-11 -14 -31 -14 -43 0 -13 -15 -39 -34 -59 -18 -19 -42 -53 -52 -75 -11 -21
-22 -39 -26 -39 -3 0 -11 -12 -17 -27 -6 -16 -15 -35 -19 -43 -5 -8 -17 -33
-28 -55 -10 -22 -26 -52 -36 -66 -9 -14 -15 -28 -13 -31 3 -3 -2 -24 -10 -48
-8 -23 -15 -59 -16 -79 0 -29 -2 -32 -9 -16 -7 16 -9 12 -15 -23 -6 -30 -12
-42 -21 -38 -8 3 -20 -6 -28 -22 -9 -15 -15 -21 -16 -14 0 16 -20 16 -20 -1 0
-18 -29 -43 -60 -52 -52 -14 -79 -30 -91 -52 -7 -13 -17 -23 -23 -23 -18 0
-118 -99 -112 -109 4 -5 1 -13 -4 -16 -6 -4 -15 -18 -20 -31 -5 -13 -16 -24
-25 -24 -8 0 -15 -8 -15 -18 0 -10 -7 -27 -15 -38 -10 -16 -12 -29 -5 -50 5
-16 12 -55 16 -86 4 -40 10 -58 20 -58 7 0 16 -12 19 -27 4 -16 10 -36 16 -45
12 -23 11 -37 -1 -18 -16 25 -12 -7 5 -40 11 -22 12 -29 2 -33 -6 -2 -12 -20
-12 -39 0 -24 4 -34 12 -31 25 10 69 -61 57 -92 -4 -8 -1 -15 5 -15 6 0 11 -9
11 -20 0 -11 -4 -20 -9 -20 -5 0 -12 -13 -16 -30 -8 -35 -23 -38 -53 -10 -17
16 -22 32 -22 70 0 52 -16 73 -35 47 -15 -21 -25 -22 -25 -1 0 9 -6 14 -12 11
-7 -2 -12 -10 -10 -16 1 -6 -5 -11 -13 -11 -9 0 -18 -6 -21 -13 -3 -9 -24 -15
-57 -16 -28 -1 -54 -6 -57 -11 -7 -11 -84 -35 -169 -53 -42 -8 -56 -8 -59 1
-7 23 -59 12 -107 -23 -33 -23 -52 -31 -56 -23 -4 6 -14 8 -22 5 -12 -4 -15
-16 -11 -44 8 -59 26 -112 37 -110 6 1 13 -6 15 -15 2 -11 -2 -18 -12 -18 -20
0 -20 -5 0 -36 14 -20 15 -32 6 -62 -17 -62 -32 -131 -32 -150 0 -10 -9 -26
-21 -35 -11 -10 -18 -25 -15 -33 3 -9 -1 -14 -14 -14 -10 0 -32 -11 -48 -25
-17 -14 -34 -25 -40 -25 -5 0 -15 -7 -22 -15 -7 -8 -26 -15 -44 -14 -17 0 -80
-7 -141 -16 -119 -18 -240 -15 -261 7 -10 10 -8 28 7 88 27 102 128 403 140
414 5 6 10 19 10 30 1 18 2 18 6 3 6 -23 23 -12 23 16 0 12 5 29 10 37 6 10 8
3 4 -25 l-5 -40 15 30 c8 17 15 24 15 17 1 -8 8 -6 23 7 12 12 30 23 40 27 21
6 24 27 5 43 -8 6 -19 29 -26 51 -8 29 -17 40 -31 40 -11 0 -20 5 -20 10 0 6
6 10 14 10 24 0 30 22 11 36 -16 12 -18 36 -19 271 -1 240 -3 267 -29 388 -15
72 -39 159 -54 195 -14 36 -25 75 -25 88 1 13 -1 21 -6 19 -4 -3 -8 5 -8 16
-2 35 -42 132 -54 129 -14 -3 -13 11 3 27 10 10 9 11 -4 6 -12 -5 -15 3 -16
42 l-2 48 11 -37 c5 -21 14 -38 19 -38 9 0 4 55 -7 72 -3 4 8 5 24 2 41 -8 93
30 91 66 -4 56 2 120 11 120 6 0 10 -7 10 -15 0 -27 20 -16 27 15 4 24 10 30
26 28 16 -2 23 5 29 28 5 19 16 34 28 37 11 3 20 12 20 21 0 9 6 16 13 16 8 0
20 18 27 40 13 39 30 54 30 26 0 -7 13 -16 29 -19 18 -4 32 -14 36 -27 3 -11
10 -20 15 -20 4 0 6 -8 3 -18 -3 -12 4 -22 20 -29 26 -12 57 -63 57 -95 0 -10
4 -18 10 -18 13 0 70 -57 70 -70 0 -5 9 -10 20 -10 11 0 20 -6 20 -13 0 -21
32 -60 39 -48 5 7 15 4 29 -10 13 -11 30 -18 40 -16 14 4 14 5 -3 6 -18 1 -18
2 3 17 23 16 42 12 42 -10 0 -9 9 -12 25 -8 14 2 25 8 25 13 0 5 8 9 18 9 30
0 105 30 117 47 7 9 17 13 23 9 7 -4 12 -2 12 4 0 6 8 14 18 17 21 8 67 55 64
66 -1 4 5 7 13 7 8 0 23 12 32 27 10 15 25 35 33 44 8 9 24 29 35 43 11 15 28
36 38 47 9 10 17 24 17 30 0 6 9 23 20 39 48 67 111 214 132 305 16 75 16 270
-1 327 -37 121 -38 123 -55 120 -12 -2 -21 7 -29 27 -12 32 -68 63 -117 65
-16 1 -29 10 -38 29 -16 33 -28 35 -36 5 -4 -18 -8 -20 -17 -11 -9 9 -9 16 0
27 17 20 5 41 -14 26 -17 -14 -47 0 -68 31 -8 11 -26 22 -38 23 -64 7 -97 31
-114 81 -6 18 -19 31 -35 35 -17 4 -26 16 -33 40 -11 43 -24 60 -42 54 -9 -4
-15 6 -20 28 -12 60 -16 68 -37 68 -18 0 -20 5 -17 44 4 41 -13 77 -26 57 -3
-5 0 -11 7 -13 7 -3 3 -7 -9 -10 -36 -10 -23 11 57 86 173 164 309 301 321
322 6 13 16 21 21 17 12 -7 108 92 108 112 0 8 7 15 14 15 22 0 196 204 230
269 10 20 23 39 28 42 17 11 43 60 133 254 40 86 50 154 36 248 -37 246 -143
569 -276 836 -106 213 -185 340 -238 379 -9 7 -15 18 -11 23 3 5 -8 23 -24 40
-21 22 -32 27 -37 18 -5 -8 -4 -10 3 -5 7 4 12 0 13 -11 1 -10 3 -40 5 -67 4
-41 2 -47 -10 -37 -10 8 -16 9 -21 1 -3 -5 1 -13 9 -16 9 -3 16 -12 16 -20 0
-17 -12 -18 -28 -2 -9 9 -12 8 -12 -7 0 -18 0 -18 -15 1 -8 10 -15 27 -15 37
0 10 -12 22 -26 27 -33 13 -34 13 -34 -8 0 -31 -11 -32 -44 -7 -17 13 -44 23
-61 23 -16 0 -57 5 -90 12 -55 11 -75 14 -129 18 -12 1 -16 7 -12 17 5 15 -8
15 -64 -1 -9 -2 -8 2 5 12 19 16 19 16 1 10 -11 -4 -23 -1 -27 6 -4 7 -25 13
-45 15 -20 1 -42 7 -48 13 -5 5 -25 10 -44 10 -29 0 -32 3 -27 20 14 43 -56
29 -112 -23 -13 -11 -25 -18 -29 -15 -3 3 9 16 25 28 17 12 31 25 31 30 0 16
-60 22 -239 21 -102 -1 -183 1 -180 3 2 2 67 7 143 10 76 3 141 7 143 10 3 2
-139 5 -314 5 -175 0 -424 3 -553 5 -130 3 -217 1 -195 -3 39 -8 39 -8 -20
-11 -62 -3 -312 -2 -330 1 -5 1 10 5 35 9 l45 7 -51 1 c-70 3 -110 34 -220
173 -150 189 -206 295 -230 431 -16 94 -8 187 28 293 26 78 200 472 246 555
48 88 177 282 212 320 l28 30 359 -1 c255 -1 365 1 380 10 17 8 24 8 29 -1 4
-6 3 -8 -4 -4 -6 3 -13 2 -16 -3 -4 -6 9 -8 31 -6 80 9 331 6 399 -4 57 -8 78
-17 104 -41 17 -16 37 -27 43 -23 6 4 8 0 5 -8 -4 -10 4 -19 21 -27 36 -16
138 -115 134 -129 -2 -6 4 -14 14 -17 26 -9 66 -47 82 -79 8 -15 18 -27 23
-27 12 0 6 -53 -7 -62 -6 -4 -1 -19 13 -37 12 -17 22 -34 22 -40 0 -5 9 -7 19
-4 13 3 21 -1 24 -14 4 -16 6 -16 12 5 4 12 11 22 16 22 5 0 9 6 9 14 0 8 6
16 13 19 13 4 57 -13 57 -23 0 -3 8 -15 19 -26 10 -11 23 -30 30 -42 10 -18
15 -20 42 -10 16 6 32 8 35 5 3 -3 -4 -8 -15 -12 -12 -3 -21 -11 -21 -17 0
-25 24 -87 31 -82 5 3 11 -7 15 -21 6 -23 15 -30 38 -26 4 1 15 -4 24 -11 21
-18 204 -18 209 0 3 6 13 12 23 12 10 0 21 7 24 16 8 21 28 7 21 -16 -4 -13 1
-19 20 -24 14 -4 25 -11 25 -16 0 -5 6 -7 14 -4 8 3 19 -3 26 -15 6 -12 8 -21
4 -21 -4 0 7 -13 24 -29 21 -21 29 -36 25 -50 -4 -17 -1 -21 21 -21 18 0 24
-4 20 -15 -4 -8 -2 -21 4 -28 5 -6 15 -36 22 -65 7 -29 17 -52 24 -51 6 1 21
-2 34 -6 24 -8 31 -45 8 -45 -16 0 -30 -27 -27 -52 1 -10 -2 -18 -6 -18 -13 0
-8 -53 5 -58 6 -2 9 -9 6 -17 -4 -10 6 -15 38 -17 l43 -3 -30 -16 c-42 -24
-123 -97 -136 -123 -9 -19 -9 -19 4 -3 8 9 19 17 26 17 6 0 11 6 11 13 0 9 2
9 8 0 6 -9 20 -4 52 17 25 17 59 33 77 36 18 3 37 12 44 20 7 9 32 14 70 14
60 0 110 -22 165 -72 12 -10 31 -20 42 -21 11 0 18 -5 16 -9 -3 -4 0 -16 6
-25 11 -17 11 -17 6 1 -5 15 -4 17 7 8 10 -9 17 -8 27 1 10 10 12 9 7 -6 -5
-12 4 -34 22 -61 26 -38 29 -47 21 -82 -5 -21 -6 -41 -2 -44 13 -9 8 -26 -18
-58 -18 -23 -28 -28 -37 -20 -7 6 -20 7 -29 4 -20 -8 -54 20 -54 44 0 27 -12
31 -33 13 -11 -10 -17 -12 -13 -5 6 10 -9 72 -18 72 0 0 -35 14 -76 32 -69 29
-86 32 -203 35 -147 3 -152 1 -113 -68 29 -49 33 -67 12 -50 -33 28 -158 -30
-161 -74 -1 -11 28 -50 78 -105 61 -68 86 -98 114 -142 15 -23 33 -47 39 -53
6 -5 24 -40 40 -78 16 -37 33 -66 39 -64 13 5 44 67 45 92 0 11 4 26 9 34 6 9
5 24 0 39 -20 53 1 29 40 -45 25 -47 43 -95 45 -122 3 -39 17 -60 39 -61 4 0
7 6 7 13 0 6 5 4 11 -6 8 -14 7 -23 -5 -36 -24 -26 -20 -31 19 -26 19 2 37 0
40 -6 4 -5 3 -8 -2 -7 -23 6 -53 -15 -53 -38 0 -26 27 -44 39 -26 3 6 13 10
21 10 49 -3 60 2 61 30 l1 27 8 -30 c5 -20 8 -24 9 -10 1 17 3 18 11 5 8 -12
10 -12 10 5 1 23 27 62 36 53 3 -4 1 -17 -6 -30 -9 -19 -9 -21 2 -8 7 8 22 14
34 12 11 -2 28 6 39 18 18 20 18 20 -4 20 l-22 0 23 33 c13 17 25 34 28 37 3
3 14 18 24 33 9 16 20 26 23 24 3 -3 1 -12 -3 -19 -5 -7 -9 -22 -9 -33 0 -11
-5 -20 -12 -20 -7 0 -18 -6 -25 -13 -10 -10 -8 -12 10 -9 25 4 62 51 62 80 0
10 4 16 8 13 12 -7 132 251 132 283 0 11 16 57 36 103 30 67 38 99 42 166 3
52 8 79 13 70 5 -7 9 -27 9 -45 0 -17 4 -34 9 -37 5 -4 7 3 4 14 -3 11 -1 26
5 33 9 10 29 91 63 247 19 90 17 259 -5 467 -6 62 -46 184 -62 190 -8 3 -14
14 -14 25 0 34 -23 100 -30 87 -4 -6 -11 6 -15 28 -3 21 -15 62 -25 91 -14 38
-16 60 -10 78 5 13 11 24 14 24 9 0 49 -77 76 -145 34 -87 74 -262 85 -370 3
-27 9 -81 13 -118 15 -126 14 -445 -2 -552 -26 -181 -137 -570 -205 -722 -22
-48 -39 -88 -38 -89 4 -4 182 26 322 54 83 17 181 33 218 37 77 8 135 28 143
50 4 8 11 12 18 8 6 -3 8 -3 4 2 -4 4 1 20 12 35 11 16 20 35 20 44 0 9 9 25
20 36 11 11 20 22 19 26 -2 15 124 173 133 168 6 -4 8 -2 5 3 -9 14 82 115 95
106 6 -3 8 -2 5 4 -8 13 283 289 359 341 121 81 311 248 349 305 8 13 29 73
47 133 28 95 32 124 33 224 l0 115 -59 160 c-61 167 -126 307 -175 378 -15 23
-42 69 -59 102 -28 57 -70 122 -156 245 -74 105 -182 226 -371 415 -211 212
-317 292 -673 511 -51 32 -98 67 -104 78 -6 12 -14 23 -17 26 -4 3 -21 25 -38
49 -18 24 -41 50 -53 58 -11 8 -17 19 -14 25 5 7 2 8 -6 3 -7 -5 -20 2 -34 18
-12 14 -60 49 -107 78 -46 28 -87 57 -91 63 -4 6 -8 7 -8 3 0 -4 -24 10 -52
32 -29 21 -85 56 -123 78 -153 83 -281 161 -378 229 -56 39 -140 93 -187 120
-79 46 -109 73 -254 225 -45 48 -64 60 -351 212 -299 158 -518 269 -585 294
-36 14 -72 31 -80 38 -18 16 -98 53 -270 126 -194 81 -505 159 -716 178 -232
22 -568 31 -784 21 -296 -13 -675 -74 -875 -140 -103 -34 -358 -175 -478 -264
l-78 -58 -122 -2 c-94 -2 -133 -7 -172 -23 -27 -11 -68 -26 -90 -33 -64 -21
-117 -47 -167 -85 -27 -19 -48 -32 -48 -28 0 4 -13 -6 -30 -22 -16 -16 -30
-24 -30 -19 0 5 -14 14 -32 19 -33 10 -52 41 -116 185 -23 50 -171 245 -179
236 -4 -3 2 -16 13 -28 l19 -23 -23 19 c-12 11 -20 26 -17 33 5 16 -63 95 -76
88 -4 -3 -11 0 -15 6 -5 8 -2 10 7 5 8 -4 6 -1 -3 7 -10 8 -16 16 -14 18 6 6
-132 137 -138 131 -3 -3 -6 3 -6 13 0 10 -2 16 -5 13 -9 -9 -75 54 -68 65 3 6
1 7 -6 3 -7 -5 -19 0 -29 12 -9 10 -45 43 -80 71 -35 29 -73 67 -84 84 -11 18
-17 23 -14 13 5 -16 4 -17 -8 -7 -8 7 -12 20 -9 28 5 13 2 15 -11 10 -9 -4
-15 -3 -12 2 3 4 -8 18 -24 29 -29 22 -31 22 -585 22 -305 0 -555 -2 -555 -5z
m5035 -884 c-6 -5 -43 -28 -84 -51 -41 -23 -103 -62 -138 -87 -36 -25 -67 -43
-70 -40 -6 6 96 74 212 141 79 46 98 54 80 37z m-305 -184 c0 -2 -15 -13 -32
-26 l-33 -22 28 25 c26 24 37 31 37 23z m430 -32 c-7 -9 -15 -13 -17 -11 -7 7
7 26 19 26 6 0 6 -6 -2 -15z m130 -90 c0 -2 -15 -12 -32 -20 l-33 -16 25 20
c24 20 40 26 40 16z m-559 -48 c-10 -9 -11 -8 -5 6 3 10 9 15 12 12 3 -3 0
-11 -7 -18z m-41 -58 l-23 -31 34 6 c31 5 30 4 -8 -10 -38 -14 -114 -85 -111
-103 1 -3 -2 -14 -7 -24 -12 -29 5 -34 26 -7 l19 25 6 -22 c4 -13 10 -23 15
-23 5 0 9 -4 9 -9 0 -5 -10 -7 -22 -4 -13 3 -20 2 -16 -2 4 -5 3 -14 -3 -21
-8 -10 -17 -6 -41 19 -28 29 -29 30 -14 5 10 -18 12 -29 5 -33 -6 -4 -8 -14
-5 -22 4 -9 -1 -17 -14 -20 -31 -8 -23 -23 13 -23 l32 0 -30 -16 c-16 -8 -40
-13 -52 -11 -12 2 -20 0 -17 -5 3 -5 -6 -6 -20 -2 -14 3 -26 4 -26 1 0 -17 14
-37 26 -37 8 0 14 -4 14 -10 0 -13 -17 -13 -25 0 -4 6 -11 8 -16 5 -5 -3 -6 2
-2 12 6 17 5 17 -13 0 -15 -14 -16 -21 -8 -35 13 -20 -11 -66 -28 -56 -6 4
-14 0 -19 -7 -6 -10 -9 -11 -9 -1 0 6 -4 12 -10 12 -5 0 -10 -9 -10 -19 0 -11
-5 -23 -12 -27 -7 -5 -8 -3 -3 6 5 8 4 11 -2 7 -6 -4 -11 -18 -12 -32 -3 -47
-4 -54 -12 -50 -9 6 -7 25 5 44 7 10 5 12 -3 7 -23 -15 -30 -50 -12 -64 14
-11 13 -12 -6 -3 -21 11 -44 -1 -25 -13 19 -11 95 21 85 37 -3 6 -1 7 5 3 6
-3 39 15 74 41 96 73 162 119 189 133 42 22 10 -3 -201 -153 -113 -81 -216
-156 -230 -167 -21 -17 -45 -21 -150 -25 -69 -3 -143 -7 -165 -10 -22 -2 -60
0 -85 4 -38 7 -29 8 55 10 234 5 306 16 344 56 22 24 23 27 6 22 -18 -6 -17
-5 3 9 12 9 22 22 22 28 0 6 11 20 25 30 14 11 24 25 21 33 -3 7 0 12 7 10 7
-1 11 6 11 15 -1 10 2 15 7 13 4 -3 6 9 3 27 -4 22 0 40 11 53 15 18 16 18 11
2 -16 -52 -19 -70 -7 -63 6 4 11 12 11 18 0 7 9 22 21 34 11 12 21 28 23 35 1
8 5 20 9 27 6 8 2 12 -12 12 -11 0 -23 -4 -26 -10 -4 -6 1 -7 11 -3 12 4 15 3
10 -6 -5 -7 -14 -10 -21 -7 -7 2 -18 -1 -24 -7 -8 -8 -11 -8 -11 1 0 7 5 12
10 12 6 0 10 5 10 10 0 6 -21 10 -47 10 -51 -1 -207 -31 -219 -42 -3 -4 -20
-4 -37 -1 -27 6 -30 4 -25 -15 4 -13 2 -20 -3 -16 -9 5 -55 -83 -51 -98 1 -5
-2 -8 -7 -8 -5 0 -19 -25 -32 -55 -12 -30 -26 -55 -30 -55 -12 0 -5 50 9 55 6
2 12 10 12 17 0 9 -3 8 -10 -2 -6 -9 -10 -10 -10 -3 0 6 5 15 10 18 26 16 4
32 -71 48 -44 10 -78 21 -76 24 3 3 29 0 57 -6 64 -14 73 -14 64 1 -4 7 -3 8
5 4 6 -4 9 -12 6 -17 -4 -5 8 -9 25 -9 25 0 31 4 26 15 -3 9 0 15 9 15 14 0
20 12 16 33 -1 5 3 6 9 2 5 -3 10 -2 10 4 0 5 3 17 7 27 4 11 3 15 -5 10 -6
-3 -13 -2 -17 4 -4 6 5 10 19 10 14 0 26 5 26 11 0 5 4 8 10 4 9 -6 130 11
160 22 8 3 31 7 50 10 19 2 54 11 77 19 23 9 46 13 52 9 6 -3 11 -4 11 0 0 3
-10 10 -22 15 -18 7 -19 9 -5 9 9 1 17 7 17 15 0 18 69 27 90 13 12 -9 13 -9
3 3 -7 8 -13 21 -13 29 0 11 4 10 16 -5 14 -18 21 -15 27 13 1 4 21 25 45 47
23 21 40 41 38 44 -3 2 8 15 25 29 16 14 29 30 28 36 0 8 -2 8 -6 -1 -2 -6 -8
-10 -12 -8 -4 3 -44 -10 -88 -28 -70 -28 -80 -35 -71 -50 5 -10 7 -20 4 -23
-3 -4 -6 -1 -6 5 0 8 -7 9 -26 1 -15 -5 -29 -7 -32 -5 -2 3 7 8 22 12 14 3 26
10 26 15 0 12 -17 11 -42 -2 -11 -6 -22 -8 -25 -5 -8 8 84 51 162 76 117 38
121 40 165 85 49 50 64 52 30 4z m320 -83 c0 -2 -8 -10 -17 -17 -16 -13 -17
-12 -4 4 13 16 21 21 21 13z m-497 -71 c-3 -9 -8 -14 -10 -11 -3 3 -2 9 2 15
9 16 15 13 8 -4z m-144 -50 c11 3 28 2 36 -3 11 -6 3 -8 -26 -8 -29 1 -44 6
-46 16 -4 12 -3 12 5 1 6 -8 18 -11 31 -6z m85 -7 c-5 -7 -9 -16 -9 -20 0 -17
-15 -19 -15 -2 0 11 5 25 12 32 15 15 23 8 12 -10z m-140 -4 c20 -8 21 -24 2
-24 -8 0 -16 7 -20 15 -6 17 -4 18 18 9z m326 -39 c-7 -9 -15 -13 -17 -11 -7
7 7 26 19 26 6 0 6 -6 -2 -15z m-340 -9 c0 -11 -19 -15 -25 -6 -3 5 1 10 9 10
9 0 16 -2 16 -4z m-50 -36 c0 -5 -5 -10 -11 -10 -5 0 -7 5 -4 10 3 6 8 10 11
10 2 0 4 -4 4 -10z m-280 -19 c0 -12 -81 -64 -88 -56 -4 4 0 10 8 15 8 5 29
18 45 29 36 24 35 23 35 12z m540 -31 c0 -5 -7 -10 -16 -10 -8 0 -12 5 -9 10
3 6 10 10 16 10 5 0 9 -4 9 -10z m-166 -55 c-4 -8 -11 -15 -16 -15 -6 0 -5 6
2 15 7 8 14 15 16 15 2 0 1 -7 -2 -15z m-70 -10 c-4 -8 -8 -15 -10 -15 -2 0
-4 7 -4 15 0 8 4 15 10 15 5 0 7 -7 4 -15z m-1047 -1 c-3 -3 -12 -4 -19 -1 -8
3 -5 6 6 6 11 1 17 -2 13 -5z m823 -14 c0 -5 -4 -10 -10 -10 -5 0 -10 5 -10
10 0 6 5 10 10 10 6 0 10 -4 10 -10z m45 -10 c-3 -5 -12 -10 -18 -10 -7 0 -6
4 3 10 19 12 23 12 15 0z m168 -36 c-4 -12 -8 -13 -14 -3 -9 15 -2 32 11 24 5
-3 6 -13 3 -21z m-450 -11 c-7 -2 -19 -2 -25 0 -7 3 -2 5 12 5 14 0 19 -2 13
-5z m1287 -13 c0 -5 7 -10 16 -10 8 0 12 -4 9 -10 -3 -5 -1 -10 4 -10 21 0 11
-40 -19 -73 -40 -46 -100 -72 -137 -60 -23 8 -29 16 -31 45 -3 32 2 40 43 75
54 45 115 68 115 43z m-958 -19 c39 -16 63 -24 70 -25 3 -1 10 -5 15 -10 5 -5
3 -6 -4 -2 -8 4 -13 2 -13 -6 0 -9 -3 -10 -8 -2 -4 6 -24 17 -44 23 -21 7 -40
17 -43 22 -8 11 -2 11 27 0z m36 -52 c-10 -7 -9 -9 5 -9 29 0 19 -17 -13 -22
-16 -3 -30 -3 -30 -2 0 1 -3 9 -6 18 -4 11 -1 16 10 16 9 0 16 4 16 10 0 5 7
7 16 3 13 -5 13 -7 2 -14z m-263 -99 c-3 -5 -12 -10 -18 -10 -7 0 -6 4 3 10
19 12 23 12 15 0z m-146 -76 c9 -8 -45 -2 -64 6 -14 7 -8 8 20 3 22 -3 42 -7
44 -9z m-242 0 c-3 -3 -12 -4 -19 -1 -8 3 -5 6 6 6 11 1 17 -2 13 -5z m116 -1
c-13 -2 -35 -2 -50 0 -16 2 -5 4 22 4 28 0 40 -2 28 -4z m-220 -10 c-7 -2 -19
-2 -25 0 -7 3 -2 5 12 5 14 0 19 -2 13 -5z m2337 -326 c-50 -46 -156 -123
-201 -145 -26 -13 -72 -48 -103 -78 -55 -53 -56 -54 -116 -54 -33 0 -60 4 -60
10 0 6 21 10 46 10 25 0 43 4 39 9 -3 5 0 13 6 17 8 4 9 3 5 -4 -9 -15 -3 -15
29 0 14 6 25 15 25 19 0 8 89 73 100 74 9 1 129 85 135 95 4 6 10 8 14 6 4 -3
17 3 27 12 23 21 67 52 74 52 2 0 -6 -10 -20 -23z m50 -678 c-12 -9 -10 -10 8
-6 20 5 21 3 10 -10 -12 -14 -11 -15 9 -5 31 17 36 15 55 -19 10 -16 14 -28 9
-25 -5 3 -8 -6 -8 -20 0 -35 -14 -46 -62 -50 -39 -3 -56 8 -28 19 8 4 7 6 -3
6 -8 1 -22 5 -30 11 -12 7 -11 12 5 31 11 12 14 19 6 14 -10 -5 -12 -4 -7 3 4
7 14 12 23 12 12 0 13 3 3 15 -13 15 -6 35 13 35 7 0 6 -4 -3 -11z m-5956
-315 c9 -3 16 -17 16 -30 0 -21 -5 -24 -34 -24 -42 0 -72 25 -55 46 12 15 46
18 73 8z m-1008 -259 c7 -18 -13 -45 -33 -45 -19 0 -28 27 -13 45 16 19 39 19
46 0z m2078 -177 c14 -19 14 -24 2 -36 -20 -20 -56 1 -56 33 0 32 33 34 54 3z
m6086 -208 c-30 -16 -59 -29 -65 -29 -5 0 15 13 45 29 30 16 60 29 65 29 6 0
-15 -13 -45 -29z m-500 -40 c0 -5 -4 -10 -10 -10 -5 0 -10 5 -10 10 0 6 5 10
10 10 6 0 10 -4 10 -10z m197 -62 c-3 -8 -6 -5 -6 6 -1 11 2 17 5 13 3 -3 4
-12 1 -19z m-7741 -213 c-2 -5 -9 -9 -15 -7 -6 1 -11 -12 -11 -31 0 -31 -34
-117 -46 -117 -2 0 0 9 6 19 13 26 14 52 0 31 -8 -13 -10 -12 -10 3 0 9 5 17
11 17 6 0 9 7 6 15 -4 8 -2 17 3 20 5 3 11 -3 14 -12 3 -10 3 1 1 24 -5 38 -3
42 16 38 13 -3 19 0 16 8 -2 7 -15 11 -28 9 -15 -1 -19 1 -11 6 9 6 7 13 -8
30 -37 39 -21 37 20 -3 22 -22 38 -44 36 -50z m9180 -103 c1 -20 -1 -29 -3
-19 -3 9 -8 15 -12 13 -4 -3 -8 11 -8 31 -1 26 2 32 10 24 6 -6 12 -28 13 -49z
m2211 -504 c-2 -13 -4 -3 -4 22 0 25 2 35 4 23 2 -13 2 -33 0 -45z m1573 46
c0 -17 -22 -14 -28 4 -2 7 3 12 12 12 9 0 16 -7 16 -16z m-10970 -92 c13 -11
20 -24 16 -30 -17 -28 -85 1 -73 32 8 21 29 20 57 -2z m10890 -42 c0 -5 -19
-10 -42 -9 -33 0 -38 2 -23 9 28 12 65 12 65 0z m44 -50 c20 -41 36 -52 36
-24 0 13 3 14 14 5 7 -6 11 -22 9 -35 -3 -13 3 -50 12 -82 9 -32 15 -80 13
-108 -1 -30 3 -66 12 -86 l15 -35 6 45 c5 36 6 28 7 -37 1 -50 -2 -83 -8 -83
-5 0 -10 -19 -9 -42 0 -31 3 -37 8 -24 5 14 10 16 15 8 4 -7 5 -16 1 -21 -6
-11 25 -81 37 -81 4 0 8 -18 8 -40 0 -27 -4 -40 -13 -40 -8 0 -19 -12 -25 -26
-7 -14 -16 -23 -21 -20 -13 9 -32 -19 -25 -38 4 -11 1 -16 -14 -16 -12 0 -22
9 -25 21 -4 16 -11 20 -26 16 -31 -8 -46 17 -31 52 10 25 9 34 -6 58 -10 15
-21 30 -24 33 -3 3 -11 16 -19 30 -10 17 -10 25 -2 28 6 2 9 8 6 12 -3 5 -12
7 -20 3 -11 -3 -13 -1 -9 10 3 8 -2 31 -10 52 -10 22 -16 67 -16 111 0 43 -4
74 -10 74 -5 0 -10 24 -10 53 0 29 -5 58 -11 64 -16 16 -13 104 3 115 10 6 8
8 -4 8 -22 0 -23 13 -4 29 10 8 15 9 18 1 2 -6 21 2 43 19 22 17 45 31 50 31
6 0 19 -18 29 -40z m-1156 -44 c-7 -8 -15 -12 -17 -11 -5 6 10 25 20 25 5 0 4
-6 -3 -14z m1272 -11 c0 -8 -2 -15 -4 -15 -2 0 -6 7 -10 15 -3 8 -1 15 4 15 6
0 10 -7 10 -15z m-13420 -40 c0 -5 -5 -3 -10 5 -5 8 -10 20 -10 25 0 6 5 3 10
-5 5 -8 10 -19 10 -25z m8933 18 c-7 -2 -19 -2 -25 0 -7 3 -2 5 12 5 14 0 19
-2 13 -5z m3247 -113 c0 -5 -15 -10 -32 -10 -25 0 -29 3 -18 10 20 13 50 13
50 0z m-2950 -10 c0 -5 -5 -10 -11 -10 -5 0 -7 5 -4 10 3 6 8 10 11 10 2 0 4
-4 4 -10z m3641 -43 c9 -12 22 -42 29 -69 7 -29 17 -48 26 -48 9 0 14 -11 14
-31 0 -24 -4 -30 -15 -25 -20 7 -20 -23 -1 -69 8 -19 11 -35 5 -35 -5 0 -9
-18 -9 -40 0 -22 5 -40 10 -40 6 0 10 -45 10 -115 0 -102 2 -115 18 -116 16
-1 16 -2 -1 -6 -10 -3 -17 -8 -15 -11 46 -92 62 -171 54 -284 -3 -56 -7 -103
-9 -104 -1 -1 -11 -4 -22 -8 -17 -5 -24 3 -43 43 -12 27 -22 67 -22 90 0 25
-10 62 -25 91 -14 27 -22 56 -19 64 4 9 -1 18 -10 22 -20 8 -20 21 -1 58 9 16
12 32 8 35 -5 3 -14 18 -21 34 -10 24 -14 26 -32 15 -11 -7 -20 -21 -20 -30 0
-10 -4 -18 -10 -18 -5 0 -13 -1 -17 -2 -5 -2 -11 17 -14 42 l-7 45 1 -52 c1
-58 -21 -100 -34 -66 -4 10 -6 -2 -4 -29 4 -61 -4 -98 -21 -98 -8 0 -14 7 -14
15 0 23 -16 18 -28 -10 -6 -14 -17 -25 -23 -25 -6 0 -23 -9 -39 -20 -15 -11
-30 -17 -33 -13 -4 3 -13 0 -21 -6 -16 -14 -40 -9 -97 17 -25 11 -40 28 -52
57 -9 22 -17 46 -17 53 0 6 -7 12 -15 12 -11 0 -15 11 -15 40 0 29 -4 40 -15
40 -13 0 -16 12 -14 68 1 37 -3 100 -10 141 -13 75 -8 141 9 141 6 0 10 10 10
23 0 26 34 45 97 54 87 12 157 -14 189 -72 14 -24 34 -31 34 -11 0 18 2 19 25
10 13 -6 14 -9 3 -16 -9 -7 -10 -11 -2 -14 8 -3 10 -20 7 -44 -4 -26 -2 -40 6
-40 7 0 11 -19 11 -50 0 -38 4 -50 15 -50 9 0 15 9 15 25 0 16 6 25 15 25 8 0
15 -7 15 -16 0 -14 2 -14 15 0 10 10 13 24 9 41 -4 15 -2 25 4 25 6 0 0 19
-13 43 -14 23 -25 52 -25 64 0 27 -20 41 -21 16 -1 -16 -2 -16 -6 1 -4 15 -7
16 -14 5 -6 -9 -8 -1 -6 24 2 22 10 42 16 47 10 6 11 19 2 60 -11 53 -7 77 8
51 6 -9 11 -10 15 -2 4 6 2 11 -3 11 -23 0 -9 20 32 44 49 30 100 27 128 -7z
m-12954 -24 c-3 -10 -5 -4 -5 12 0 17 2 24 5 18 2 -7 2 -21 0 -30z m8945 -68
c28 -55 8 -32 -26 30 -15 28 -20 41 -11 30 9 -11 26 -38 37 -60z m-2083 10 c3
-3 -41 -4 -98 -1 -57 3 -106 8 -109 11 -3 3 41 3 97 1 57 -3 106 -8 110 -11z
m4968 -97 c-2 -13 -4 -3 -4 22 0 25 2 35 4 23 2 -13 2 -33 0 -45z m-2296 -45
c-17 -31 -31 -62 -31 -69 0 -6 -7 -18 -16 -25 -15 -12 -16 -11 -9 11 4 14 19
42 31 62 13 21 24 41 24 46 0 8 21 32 28 32 2 0 -10 -26 -27 -57z m4695 2 c-3
-8 -10 -15 -16 -15 -14 0 -12 37 3 43 15 5 21 -8 13 -28z m-14826 -75 c0 -5
-4 -10 -10 -10 -5 0 -10 5 -10 10 0 6 5 10 10 10 6 0 10 -4 10 -10z m8317 -6
c-3 -3 -12 -4 -19 -1 -8 3 -5 6 6 6 11 1 17 -2 13 -5z m340 -30 c-3 -3 -12 -4
-19 -1 -8 3 -5 6 6 6 11 1 17 -2 13 -5z m101 -11 c-10 -2 -26 -2 -35 0 -10 3
-2 5 17 5 19 0 27 -2 18 -5z m159 -8 c31 -8 80 -16 108 -16 45 -1 47 -2 20
-10 -26 -7 -24 -8 13 -5 23 2 42 0 42 -5 0 -5 15 -9 33 -9 21 0 28 3 19 9 -8
5 9 6 40 3 59 -5 88 -20 66 -33 -9 -6 -8 -10 5 -15 9 -3 14 -10 11 -15 -3 -5
7 -26 22 -46 18 -25 10 -19 -22 16 l-51 55 -56 -13 c-59 -13 -64 -19 -46 -53
6 -11 8 -22 6 -24 -3 -3 -19 20 -36 50 -33 57 -50 68 -107 68 -19 0 -32 3 -29
8 2 4 -23 13 -58 20 -64 13 -98 30 -59 30 11 0 47 -7 79 -15z m-4609 -27 c46
-38 -28 -76 -119 -60 -36 6 -44 11 -45 30 -2 32 47 53 106 46 25 -3 51 -11 58
-16z m5457 3 c3 -5 1 -12 -5 -16 -5 -3 -10 1 -10 9 0 18 6 21 15 7z m-1242
-18 c-7 -2 -21 -2 -30 0 -10 3 -4 5 12 5 17 0 24 -2 18 -5z m395 0 c-15 -2
-42 -2 -60 0 -18 2 -6 4 27 4 33 0 48 -2 33 -4z m-3019 -78 c35 -38 40 -48 31
-65 -14 -27 -20 -26 -68 16 -43 36 -52 60 -30 82 18 18 22 16 67 -33z m4068
-21 c-3 -3 -12 -4 -19 -1 -8 3 -5 6 6 6 11 1 17 -2 13 -5z m-6394 -34 c-10
-11 -21 -20 -25 -20 -4 0 0 9 9 20 10 11 21 20 25 20 4 0 0 -9 -9 -20z m-3173
-10 c0 -5 -5 -10 -11 -10 -5 0 -7 5 -4 10 3 6 8 10 11 10 2 0 4 -4 4 -10z
m3188 -10 c-7 -11 -16 -20 -20 -20 -5 0 -3 9 4 20 7 11 16 20 20 20 5 0 3 -9
-4 -20z m-3219 -32 c-9 -16 -14 -19 -17 -9 -2 7 2 17 9 22 20 13 21 11 8 -13z
m3173 5 c-6 -3 -10 -8 -8 -12 4 -6 -23 -7 -42 -2 -13 4 12 16 35 17 15 1 22
-1 15 -3z m-3151 -26 c-10 -9 -11 -8 -5 6 3 10 9 15 12 12 3 -3 0 -11 -7 -18z
m3065 -32 c0 -13 -2 -22 -5 -20 -6 6 -30 -27 -31 -42 0 -7 7 -13 15 -13 8 0
15 -4 15 -10 0 -5 -6 -10 -14 -10 -22 0 -29 -47 -10 -75 15 -24 15 -29 0 -68
-9 -23 -16 -61 -16 -84 0 -24 -6 -48 -15 -57 -8 -8 -16 -25 -16 -38 -1 -20 -3
-19 -10 7 -6 23 -7 19 -4 -20 4 -38 3 -47 -7 -37 -15 15 -15 93 0 212 7 52 13
126 14 163 0 37 5 70 11 74 6 3 7 1 3 -5 -5 -8 -2 -10 8 -6 9 3 13 10 10 15
-3 5 3 6 12 2 11 -4 15 -3 10 5 -3 6 2 15 11 21 10 6 18 11 19 11 0 0 0 -11 0
-25z m-3092 -41 c-1 -15 -8 -32 -14 -38 -9 -8 -10 -3 -4 19 12 50 23 62 18 19z
m13046 6 c0 -5 -5 -10 -11 -10 -5 0 -7 5 -4 10 3 6 8 10 11 10 2 0 4 -4 4 -10z
m57 -12 c-3 -8 -6 -5 -6 6 -1 11 2 17 5 13 3 -3 4 -12 1 -19z m-9670 -70 c-3
-8 -6 -5 -6 6 -1 11 2 17 5 13 3 -3 4 -12 1 -19z m-3464 -33 c-3 -9 -8 -14
-10 -11 -3 3 -2 9 2 15 9 16 15 13 8 -4z m38 -32 c-12 -20 -14 -14 -5 12 4 9
9 14 11 11 3 -2 0 -13 -6 -23z m3401 -25 c10 -12 16 -28 14 -35 -3 -8 0 -16 7
-19 9 -3 12 -17 10 -37 -4 -25 -2 -29 6 -17 8 11 11 -5 11 -60 0 -86 9 -152
20 -145 4 2 5 -7 2 -22 l-5 -26 -14 24 c-13 24 -13 24 -7 -6 3 -16 15 -43 26
-58 11 -16 17 -35 14 -43 -3 -8 -2 -14 3 -14 8 0 14 -22 24 -82 2 -9 9 -23 16
-32 7 -9 11 -23 7 -31 -3 -9 -2 -14 3 -10 10 6 26 -53 17 -62 -3 -3 1 -12 9
-19 14 -15 18 -95 5 -104 -12 -9 -22 -80 -10 -80 5 0 10 -5 10 -11 0 -8 -4 -8
-15 1 -26 22 -33 1 -34 -112 -1 -76 -6 -115 -14 -120 -6 -4 -11 -22 -10 -40 2
-26 1 -29 -6 -13 -7 16 -9 11 -13 -25 -11 -96 -31 -200 -39 -200 -5 0 -9 -9
-9 -20 0 -11 -4 -20 -8 -20 -15 0 -30 -65 -37 -157 -4 -51 -11 -93 -15 -93 -4
0 -4 -18 0 -39 5 -31 4 -38 -7 -34 -9 4 -13 -5 -13 -30 0 -35 -12 -47 -47 -47
-8 0 -23 -10 -34 -22 l-18 -23 -1 27 c0 26 -27 87 -44 99 -10 8 11 79 24 79 4
0 10 23 12 50 3 33 13 59 27 73 26 29 27 37 1 37 -11 0 -20 7 -20 15 0 10 7
15 18 13 12 -2 18 5 20 25 2 15 -1 27 -7 27 -7 0 -11 24 -11 61 0 50 -3 60
-15 55 -10 -4 -15 1 -15 16 0 27 -38 108 -51 108 -5 0 -9 8 -9 19 0 10 -9 21
-20 24 -13 3 -20 14 -20 29 0 32 -15 52 -34 45 -12 -5 -16 0 -16 18 0 27 -9
32 -28 13 -9 -9 -12 0 -12 40 0 44 -3 52 -19 52 -11 0 -23 12 -31 30 -11 28
-40 42 -40 21 0 -17 -31 -41 -53 -41 -12 0 -28 -10 -36 -22 -13 -21 -15 -21
-21 -4 -12 34 1 77 26 88 13 6 24 19 24 29 0 9 2 26 5 36 7 23 -10 -13 -19
-40 -3 -10 -10 -15 -16 -12 -6 4 -5 17 3 38 8 18 12 38 9 45 -2 7 3 28 12 46
9 19 13 41 10 50 -4 9 -1 16 6 16 8 0 10 11 6 38 -4 28 -3 32 4 17 8 -16 9
-12 5 17 -3 20 -1 39 5 43 6 4 10 -9 10 -34 0 -34 3 -41 20 -41 11 0 20 -7 20
-15 0 -8 7 -15 15 -15 11 0 15 11 15 36 l0 37 50 -5 c55 -6 67 9 29 35 -13 9
-16 17 -10 22 6 3 11 1 11 -4 0 -6 11 -11 25 -11 23 0 25 4 25 40 0 29 -4 40
-15 40 -8 0 -15 5 -15 10 0 6 14 10 30 10 29 0 30 -1 30 -50 0 -38 4 -50 15
-50 11 0 15 11 15 40 0 22 -5 40 -10 40 -7 0 -7 6 0 20 8 14 8 26 0 40 -8 15
-8 20 1 20 8 0 9 22 4 78 -7 81 -9 75 44 138 5 7 7 21 4 33 -3 11 -1 21 5 21
5 0 20 16 31 36 14 24 27 34 36 30 12 -4 15 3 15 29 0 28 4 35 20 35 11 0 20
5 20 10 0 16 11 12 32 -12z m-3422 -35 c-11 -17 -11 -17 -6 0 3 10 6 24 7 30
0 9 2 9 5 0 3 -7 0 -20 -6 -30z m3330 27 c0 -5 -11 -10 -24 -10 -14 0 -28 5
-31 10 -4 6 7 10 24 10 17 0 31 -4 31 -10z m10040 -56 c0 -8 -4 -14 -10 -14
-5 0 -10 9 -10 21 0 11 5 17 10 14 6 -3 10 -13 10 -21z m-10260 1 c0 -8 -4
-15 -10 -15 -5 0 -7 7 -4 15 4 8 8 15 10 15 2 0 4 -7 4 -15z m-3237 -192 c-5
-12 -7 -12 -14 -1 -5 8 -8 0 -7 -23 1 -19 -4 -44 -11 -55 -10 -15 -11 -16 -7
-1 3 10 0 17 -7 17 -7 1 -5 6 5 14 10 7 16 15 14 17 -2 2 -6 18 -10 34 -5 21
-4 26 3 15 8 -12 11 -12 17 4 5 13 9 14 14 5 5 -7 6 -19 3 -26z m3237 27 c0
-5 -4 -10 -10 -10 -5 0 -10 5 -10 10 0 6 5 10 10 10 6 0 10 -4 10 -10z m-107
-67 c4 -6 4 -19 0 -30 -6 -16 -8 -15 -14 7 -4 14 -7 41 -7 60 l0 35 7 -31 c4
-17 11 -36 14 -41z m-3112 -57 c-14 -36 -22 -33 -9 5 6 16 12 28 14 26 3 -2 0
-16 -5 -31z m7553 -94 c12 -23 27 -34 59 -42 62 -16 67 -21 20 -16 -24 2 -43
2 -43 0 0 -2 10 -24 23 -48 15 -30 38 -55 72 -76 67 -42 316 -190 320 -190 2
0 1 10 -2 23 -3 13 2 9 14 -13 13 -26 39 -46 98 -78 44 -24 96 -56 115 -70 35
-27 178 -119 235 -152 17 -9 53 -31 82 -49 l52 -32 60 22 c68 24 87 21 101
-16 13 -35 -17 -113 -64 -165 -20 -22 -36 -44 -36 -48 0 -16 -107 -63 -146
-64 -33 -2 -51 5 -95 37 -77 55 -99 76 -92 88 3 6 1 7 -6 3 -7 -4 -44 14 -87
43 -42 28 -80 48 -85 46 -4 -3 -11 4 -14 15 -5 17 -10 19 -21 9 -11 -9 -14 -8
-14 2 0 13 -158 109 -180 109 -5 0 -20 10 -34 23 -33 31 -215 129 -227 121 -5
-3 -9 1 -9 8 0 8 -32 28 -71 46 -82 38 -122 75 -183 169 -54 86 -68 127 -70
217 0 39 -5 74 -11 78 -6 5 -3 8 6 8 8 0 26 11 39 25 30 32 92 50 120 35 11
-6 17 -16 14 -22 -5 -7 -2 -8 6 -3 8 5 10 21 7 49 l-6 41 18 -51 c10 -27 26
-64 35 -82z m-4455 28 c0 -30 -3 -60 -7 -67 -4 -6 -7 27 -8 74 0 47 3 77 7 67
4 -11 8 -44 8 -74z m31 25 c7 4 1 -28 -14 -80 -2 -5 -3 22 -2 60 0 39 2 58 4
42 2 -15 7 -25 12 -22z m-3199 16 c-7 -5 -11 -13 -9 -17 3 -5 2 -18 -2 -28 -6
-17 -7 -18 -13 -3 -3 9 -2 17 4 17 6 0 7 5 4 10 -7 12 15 44 24 35 3 -3 -1
-10 -8 -14z m-955 -18 c-10 -10 -19 5 -10 18 6 11 8 11 12 0 2 -7 1 -15 -2
-18z m905 -40 c-12 -20 -14 -14 -5 12 4 9 9 14 11 11 3 -2 0 -13 -6 -23z
m3196 -5 c-3 -7 -5 -2 -5 12 0 14 2 19 5 13 2 -7 2 -19 0 -25z m-3180 -40 c-3
-7 -5 -2 -5 12 0 14 2 19 5 13 2 -7 2 -19 0 -25z m3256 12 c3 -11 1 -23 -4
-26 -5 -3 -9 6 -9 20 0 31 6 34 13 6z m-3273 -20 c6 -11 8 -20 6 -20 -3 0 -10
9 -16 20 -6 11 -8 20 -6 20 3 0 10 -9 16 -20z m7847 -26 c-3 -3 -12 -4 -19 -1
-8 3 -5 6 6 6 11 1 17 -2 13 -5z m-7867 -65 c-12 -41 -24 -53 -14 -14 7 32 13
45 19 45 2 0 0 -14 -5 -31z m-33 -21 c-3 -8 -6 -5 -6 6 -1 11 2 17 5 13 3 -3
4 -12 1 -19z m-34 -39 c-6 -6 -7 3 -4 23 4 28 6 29 9 9 2 -13 0 -27 -5 -32z
m91 -51 c-4 -13 -7 -25 -6 -28 0 -3 -3 -9 -8 -15 -4 -5 -11 -26 -15 -45 -4
-19 -11 -41 -15 -50 -19 -37 -80 -189 -85 -210 -13 -55 -20 -76 -36 -108 -28
-56 -23 -37 25 104 60 177 79 228 91 236 6 4 7 8 3 8 -4 0 4 30 18 67 13 38
24 70 24 72 0 2 3 2 6 -2 3 -3 3 -16 -2 -29z m3850 -104 c3 -8 2 -12 -4 -9 -6
4 -14 -4 -19 -17 -6 -13 -10 -17 -10 -10 -1 10 20 52 25 52 1 0 5 -7 8 -16z
m-856 -99 c-13 -112 -30 -195 -40 -189 -4 3 -8 -9 -8 -26 0 -17 -6 -46 -14
-65 -8 -18 -11 -37 -8 -41 4 -4 1 -4 -7 1 -11 6 -13 2 -8 -21 l6 -29 -15 30
-15 30 6 -30 c4 -16 7 -32 7 -35 1 -3 -2 -17 -6 -32 -8 -28 -26 -29 -26 -2 0
8 4 13 9 10 11 -7 7 41 -4 52 -4 4 -4 -4 0 -17 4 -14 3 -21 -3 -17 -5 3 -12
-12 -16 -34 -8 -49 -8 -50 2 -49 4 0 5 8 4 17 -3 12 -1 14 7 6 12 -11 -12 -83
-32 -95 -5 -4 -7 -14 -4 -22 3 -8 2 -18 -3 -23 -5 -5 -11 -22 -14 -39 -8 -42
-27 -85 -38 -85 -5 0 -6 -4 -3 -10 3 -5 2 -10 -4 -10 -6 0 -8 -6 -5 -13 3 -8
-2 -20 -10 -27 -9 -7 -14 -16 -11 -20 3 -5 1 -11 -5 -15 -5 -3 -10 -15 -10
-26 0 -10 -4 -19 -8 -19 -5 0 -9 -6 -9 -12 0 -7 -17 -44 -37 -83 -33 -63 -40
-61 -13 5 5 14 11 38 13 54 3 17 11 41 20 54 9 14 12 22 6 19 -5 -4 -2 18 6
48 8 30 19 52 23 49 9 -5 22 33 15 45 -3 4 3 26 13 47 11 21 17 42 14 46 -2 5
0 8 6 8 5 0 8 9 6 20 -2 11 0 20 5 20 5 0 6 7 3 17 -5 11 -3 14 6 8 10 -5 11
-2 7 13 -5 15 -2 22 14 27 17 5 20 12 15 35 -3 15 -2 31 4 34 6 4 7 14 4 23
-4 11 -3 14 5 9 8 -5 14 3 18 24 4 17 11 33 15 36 5 3 9 11 9 17 0 7 -4 6 -11
-3 -9 -12 -10 -12 -5 3 3 10 6 24 6 30 0 6 6 2 14 -9 13 -17 14 -15 9 24 -4
27 -2 42 5 42 7 0 9 7 5 17 -5 12 -3 14 7 8 8 -5 11 -4 6 3 -3 6 10 62 30 124
51 160 56 164 42 43z m865 5 c-3 -12 -8 -19 -11 -16 -5 6 5 36 12 36 2 0 2 -9
-1 -20z m-26 -27 c-3 -10 -5 -4 -5 12 0 17 2 24 5 18 2 -7 2 -21 0 -30z m3950
-85 c-3 -8 -6 -5 -6 6 -1 11 2 17 5 13 3 -3 4 -12 1 -19z m-4687 -28 c0 -11
-2 -20 -4 -20 -2 0 -6 9 -9 20 -3 11 -1 20 4 20 5 0 9 -9 9 -20z m80 5 c0 -8
-7 -15 -16 -15 -14 0 -14 3 -4 15 7 8 14 15 16 15 2 0 4 -7 4 -15z m657 -7
c-3 -8 -6 -5 -6 6 -1 11 2 17 5 13 3 -3 4 -12 1 -19z m3967 -13 c3 -9 0 -15
-9 -15 -9 0 -12 6 -9 15 4 8 7 15 9 15 2 0 5 -7 9 -15z m-4722 -40 c-8 -16 -9
-16 -15 -1 -4 10 -3 15 3 11 6 -3 10 -1 10 6 0 7 3 10 6 6 3 -3 2 -13 -4 -22z
m4825 9 c-3 -3 -12 -4 -19 -1 -8 3 -5 6 6 6 11 1 17 -2 13 -5z m-100 -26 c-3
-8 -6 -5 -6 6 -1 11 2 17 5 13 3 -3 4 -12 1 -19z m150 16 c-3 -3 -12 -4 -19
-1 -8 3 -5 6 6 6 11 1 17 -2 13 -5z m-4860 -26 c-3 -8 -6 -5 -6 6 -1 11 2 17
5 13 3 -3 4 -12 1 -19z m4910 16 c-3 -3 -12 -4 -19 -1 -8 3 -5 6 6 6 11 1 17
-2 13 -5z m4113 -79 c0 -8 -4 -15 -10 -15 -5 0 -10 7 -10 15 0 8 5 15 10 15 6
0 10 -7 10 -15z m-1024 -22 c-10 -10 -19 5 -10 18 6 11 8 11 12 0 2 -7 1 -15
-2 -18z m-11297 -79 c-11 -43 -21 -87 -20 -97 0 -10 -5 -15 -11 -11 -6 4 -8
-1 -3 -16 5 -15 3 -20 -3 -16 -6 4 -10 -1 -10 -11 1 -19 -28 -118 -93 -317
-22 -65 -39 -123 -39 -130 0 -6 -11 -38 -24 -71 -14 -33 -33 -89 -44 -125 -15
-52 -21 -61 -27 -46 -6 13 -4 21 3 24 7 2 10 7 8 11 -3 4 9 52 25 106 44 151
252 785 256 781 2 -1 -6 -38 -18 -82z m12326 6 c-5 -8 -11 -8 -17 -2 -6 6 -7
16 -3 22 5 8 11 8 17 2 6 -6 7 -16 3 -22z m350 0 c10 -11 16 -20 13 -20 -3 0
-13 9 -23 20 -10 11 -16 20 -13 20 3 0 13 -9 23 -20z m-9461 -15 c-4 -8 -8
-15 -10 -15 -2 0 -4 7 -4 15 0 8 4 15 10 15 5 0 7 -7 4 -15z m8166 -5 c0 -5
-7 -10 -15 -10 -8 0 -15 5 -15 10 0 6 7 10 15 10 8 0 15 -4 15 -10z m-8171
-36 c4 3 7 -5 7 -17 -1 -24 -18 -47 -35 -47 -6 0 -11 -4 -11 -10 0 -12 6 -13
29 -1 15 9 16 4 13 -55 -3 -45 -1 -64 8 -64 6 0 18 -7 27 -15 9 -9 23 -13 34
-10 14 5 19 1 19 -12 0 -15 -8 -19 -36 -20 -42 -1 -49 -6 -40 -29 8 -22 75
-12 96 14 39 48 129 64 131 24 0 -11 3 -12 6 -4 7 18 25 14 22 -5 -4 -28 28
-93 45 -93 9 0 16 -4 16 -9 0 -4 18 -21 40 -36 33 -23 40 -33 40 -61 0 -18 5
-36 11 -40 7 -4 9 -24 5 -55 -6 -45 -5 -49 14 -49 23 0 26 -13 6 -29 -16 -14
-29 -64 -27 -107 2 -19 -5 -38 -16 -49 -10 -10 -23 -34 -28 -54 -9 -29 -16
-36 -35 -36 -19 -1 -25 -6 -24 -23 0 -12 -5 -22 -12 -22 -8 0 -11 6 -8 14 3 8
0 17 -6 21 -7 4 -14 -2 -17 -14 -3 -12 -9 -21 -14 -21 -5 0 -9 -11 -9 -24 0
-19 -4 -22 -24 -19 -21 4 -25 1 -28 -23 -3 -25 -10 -31 -48 -42 -25 -7 -51
-17 -59 -21 -15 -8 -75 -111 -65 -111 3 0 -3 -12 -14 -27 -10 -16 -26 -45 -36
-65 -9 -21 -22 -38 -27 -38 -16 0 -33 -21 -49 -60 -26 -63 -49 -105 -50 -90 0
8 -9 -3 -19 -25 -11 -22 -20 -34 -20 -27 -1 6 -8 12 -16 12 -9 0 -15 -6 -14
-12 1 -7 0 -24 -1 -38 l-2 -25 -7 25 -7 25 -8 -22 c-7 -23 -26 -32 -26 -13 0
6 -4 10 -10 10 -5 0 -10 -7 -10 -15 0 -9 9 -15 25 -15 30 0 30 -2 9 -42 -13
-25 -14 -36 -5 -51 10 -15 9 -21 -5 -31 -10 -8 -14 -18 -9 -26 6 -10 4 -10
-11 -2 -11 6 -19 23 -20 41 -1 17 2 28 6 26 18 -11 19 14 1 34 -16 18 -22 20
-50 10 -18 -6 -35 -9 -38 -5 -4 3 -15 -1 -25 -10 -14 -14 -20 -14 -33 -4 -8 7
-39 13 -67 13 -40 0 -53 -4 -58 -17 -5 -16 -8 -15 -34 5 -33 26 -33 24 30 279
44 181 62 224 272 647 22 45 43 92 47 105 4 13 22 55 40 93 18 39 52 117 76
175 24 58 50 111 59 118 8 8 9 11 3 7 -17 -8 -16 0 4 38 10 18 18 42 20 55 1
12 11 34 23 49 12 15 18 35 15 47 -3 12 -2 15 1 8 3 -6 9 -10 13 -8z m7788
-66 c-3 -7 -5 -2 -5 12 0 14 2 19 5 13 2 -7 2 -19 0 -25z m-7770 -70 c-3 -8
-6 -5 -6 6 -1 11 2 17 5 13 3 -3 4 -12 1 -19z m6083 -38 c0 -5 -5 -10 -11 -10
-5 0 -7 5 -4 10 3 6 8 10 11 10 2 0 4 -4 4 -10z m-5430 -230 c0 -5 -5 -10 -11
-10 -5 0 -7 5 -4 10 3 6 8 10 11 10 2 0 4 -4 4 -10z m336 -12 c8 -13 -30 -48
-52 -48 -21 0 -18 48 4 53 31 8 41 7 48 -5z m-319 -20 c-3 -8 -6 -5 -6 6 -1
11 2 17 5 13 3 -3 4 -12 1 -19z m-211 -94 c-3 -9 -6 -20 -6 -25 0 -17 -17 -1
-23 21 -4 15 0 20 15 20 14 0 18 -5 14 -16z m-3956 -295 c0 -5 -4 -9 -10 -9
-5 0 -10 7 -10 16 0 8 5 12 10 9 6 -3 10 -10 10 -16z m-10 -36 c0 -5 -7 -17
-15 -27 -8 -11 -12 -29 -9 -39 4 -13 2 -17 -5 -12 -8 5 -10 -2 -6 -22 5 -24 4
-25 -4 -6 -9 20 -7 35 15 96 6 17 24 24 24 10z m13780 -43 c0 -5 -5 -10 -11
-10 -5 0 -7 5 -4 10 3 6 8 10 11 10 2 0 4 -4 4 -10z m-13836 -158 c-7 -26 -25
-103 -39 -172 -14 -69 -29 -132 -32 -140 -4 -8 -8 -19 -8 -25 -1 -5 -5 -19
-10 -30 -4 -11 -28 -75 -54 -143 -25 -67 -47 -118 -49 -114 -1 5 27 125 63
267 36 143 65 261 65 263 0 2 5 0 12 -4 6 -4 8 -3 5 3 -8 13 13 93 25 93 5 0
6 4 3 10 -3 5 0 28 7 51 12 41 12 41 19 15 5 -16 2 -46 -7 -74z m3796 78 c0
-5 -5 -10 -11 -10 -5 0 -7 5 -4 10 3 6 8 10 11 10 2 0 4 -4 4 -10z m10040 0
c0 -5 -5 -10 -11 -10 -5 0 -7 5 -4 10 3 6 8 10 11 10 2 0 4 -4 4 -10z m-9895
-86 c14 -15 25 -33 25 -40 0 -7 5 -16 10 -19 7 -4 9 2 5 18 -4 14 -2 28 3 31
6 4 8 -3 4 -16 -3 -12 -1 -19 4 -15 5 3 9 -7 8 -21 -1 -15 -3 -35 -3 -45 -1
-11 -5 -15 -13 -11 -7 5 -9 2 -5 -9 6 -17 -41 -116 -98 -202 -31 -45 -40 -54
-47 -41 -11 19 -16 166 -5 159 4 -2 7 0 7 6 0 5 -4 13 -10 16 -5 3 -10 21 -10
40 0 19 -4 37 -10 40 -18 11 -10 25 15 25 29 0 32 19 9 55 -16 24 -15 25 5 25
12 0 21 -6 21 -15 0 -8 5 -15 10 -15 10 0 14 15 11 34 -2 10 18 26 32 26 4 0
19 -12 32 -26z m-458 -276 c-3 -7 -5 -2 -5 12 0 14 2 19 5 13 2 -7 2 -19 0
-25z m342 -148 c0 -9 -4 -8 -9 5 -5 11 -9 27 -9 35 0 9 4 8 9 -5 5 -11 9 -27
9 -35z m-478 -78 c-7 -2 -18 1 -23 6 -8 8 -4 9 13 5 13 -4 18 -8 10 -11z
m9560 -7 c5 4 6 -2 2 -11 -4 -11 -8 -13 -11 -6 -2 7 -8 10 -13 7 -5 -4 -6 2
-2 11 4 11 8 13 11 6 2 -7 8 -10 13 -7z m-1771 -20 c0 -8 -4 -15 -10 -15 -5 0
-7 7 -4 15 4 8 8 15 10 15 2 0 4 -7 4 -15z m-7793 -21 c-3 -3 -12 -4 -19 -1
-8 3 -5 6 6 6 11 1 17 -2 13 -5z m-17 -28 c-7 -7 -13 -7 -20 0 -6 6 -3 10 10
10 13 0 16 -4 10 -10z m10627 8 c-3 -3 -12 -4 -19 -1 -8 3 -5 6 6 6 11 1 17
-2 13 -5z m50 -80 c-3 -3 -12 -4 -19 -1 -8 3 -5 6 6 6 11 1 17 -2 13 -5z
m-10815 -76 c-8 -8 -9 -4 -5 13 4 13 8 18 11 10 2 -7 -1 -18 -6 -23z m3578 21
c25 -5 54 -12 65 -15 16 -4 17 -3 5 5 -11 8 -4 11 32 11 26 0 49 -4 53 -9 3
-6 -11 -8 -32 -5 -25 3 -34 1 -28 -5 6 -5 21 -11 35 -13 14 -2 36 -11 50 -21
20 -13 46 -16 118 -15 51 1 94 -1 97 -4 3 -3 -29 -11 -72 -18 -68 -10 -84 -10
-123 5 -25 10 -97 31 -160 47 -115 30 -157 48 -109 48 13 0 44 -5 69 -11z
m4218 -32 c8 -6 12 -6 12 2 0 16 64 -58 86 -99 12 -24 18 -57 18 -105 0 -65
-2 -74 -33 -112 -48 -60 -121 -92 -186 -83 -101 14 -147 50 -164 129 -30 142
8 226 121 269 54 21 119 21 146 -1z m3020 -2 c1 -21 -1 -23 -11 -13 -17 15
-18 38 -3 38 7 0 13 -11 14 -25z m-7011 -1 c-3 -3 -12 -4 -19 -1 -8 3 -5 6 6
6 11 1 17 -2 13 -5z m7061 -89 c4 3 0 10 -8 15 -8 6 -10 10 -4 10 6 0 17 -7
24 -15 9 -11 10 -15 1 -15 -8 0 -10 -8 -6 -20 4 -11 2 -20 -4 -20 -6 0 -11 7
-11 15 0 9 -9 15 -25 15 -14 0 -25 -5 -25 -10 0 -6 11 -15 25 -20 14 -5 25
-12 25 -16 0 -3 -7 -3 -16 0 -12 5 -15 2 -10 -10 9 -22 -24 -60 -36 -42 -4 7
-8 18 -8 23 0 6 4 4 9 -4 5 -7 14 -10 20 -7 6 4 8 13 4 19 -4 7 -8 19 -10 27
-1 8 -7 16 -13 18 -8 3 -8 8 1 18 6 7 9 21 5 29 -5 13 -2 13 25 -1 17 -8 34
-13 37 -9z m45 10 c-3 -9 -8 -14 -10 -11 -3 3 -2 9 2 15 9 16 15 13 8 -4z
m-8256 -52 c-4 -3 1 -11 10 -18 15 -11 14 -14 -10 -30 -15 -9 -33 -15 -41 -12
-7 3 -17 2 -22 -2 -5 -4 -31 -16 -59 -26 -27 -10 -58 -25 -68 -33 -15 -13 -17
-13 -12 -1 3 8 35 30 70 48 36 19 65 38 65 43 0 5 -10 13 -22 18 -16 6 -9 7
25 3 32 -4 47 -2 47 6 0 6 5 11 12 11 6 0 8 -3 5 -7z m43 3 c0 -11 -19 -15
-25 -6 -3 5 1 10 9 10 9 0 16 -2 16 -4z m-258 -118 c-8 -8 -8 -15 -2 -23 8 -9
4 -12 -12 -10 -35 4 -35 4 -8 25 28 22 40 26 22 8z m-482 -22 c0 -3 -4 -8 -10
-11 -5 -3 -10 -1 -10 4 0 6 5 11 10 11 6 0 10 -2 10 -4z m440 -15 c0 -5 -27
-24 -59 -44 -32 -19 -67 -42 -77 -52 -11 -9 -84 -61 -164 -116 -80 -54 -176
-121 -215 -149 -117 -83 -108 -59 15 42 25 20 65 53 89 73 24 20 49 34 56 31
6 -2 18 0 26 6 11 7 9 8 -6 3 -26 -8 -13 4 52 47 29 19 50 38 45 43 -4 5 -2 6
3 2 6 -3 51 21 100 54 91 60 111 69 100 47 -3 -7 0 -5 7 5 14 18 28 23 28 8z
m-357 -12 c-18 -5 -33 -14 -33 -19 0 -6 -8 -10 -19 -10 -10 0 -32 -7 -47 -15
-16 -8 -36 -15 -45 -15 -15 0 -59 -42 -59 -58 -1 -4 -16 -25 -35 -47 -24 -28
-33 -34 -29 -19 3 12 21 38 39 60 32 37 39 58 13 37 -7 -6 -33 -17 -58 -26
-25 -8 -83 -32 -130 -52 -106 -46 -146 -56 -62 -15 34 16 65 31 70 32 4 1 27
11 52 24 25 12 69 30 98 40 30 11 71 34 92 52 21 17 42 32 47 32 4 0 1 -4 -7
-10 -30 -19 -2 -19 51 -1 30 11 63 19 74 19 11 0 6 -4 -12 -9z m7539 -102 c10
-12 18 -25 18 -29 0 -12 -99 -9 -121 2 -19 11 -26 40 -11 54 15 16 97 -4 114
-27z m-8077 -117 c-3 -5 -11 -10 -16 -10 -6 0 -7 5 -4 10 3 6 11 10 16 10 6 0
7 -4 4 -10z m9805 -74 c-6 -6 -10 -8 -11 -5 0 2 -2 24 -5 49 l-4 45 15 -40 c9
-25 11 -43 5 -49z m-980 54 c0 -5 -5 -10 -11 -10 -5 0 -7 5 -4 10 3 6 8 10 11
10 2 0 4 -4 4 -10z m-5025 -20 c-3 -5 -2 -10 3 -10 5 0 9 -6 9 -12 1 -27 9
-43 23 -50 11 -6 10 -7 -5 -5 -11 1 -21 8 -21 15 -1 6 -2 17 -3 23 0 5 -5 8
-10 4 -5 -3 -13 0 -17 6 -5 8 -3 9 6 4 10 -6 12 -4 7 7 -3 9 -3 19 0 22 10 10
15 7 8 -4z m135 6 c0 -2 -7 -9 -15 -16 -12 -10 -15 -10 -15 4 0 9 7 16 15 16
8 0 15 -2 15 -4z m5578 -47 c25 -8 31 -16 28 -32 -3 -12 -5 -30 -5 -39 -1 -22
-38 -24 -86 -4 -39 17 -44 36 -17 65 20 23 38 25 80 10z m-1185 -50 c-3 -11 1
-26 8 -35 10 -13 10 -17 -2 -25 -23 -15 -32 -10 -25 14 3 12 6 38 6 57 0 24 3
31 9 21 5 -7 6 -22 4 -32z m1477 25 c0 -8 -19 -13 -24 -6 -3 5 1 9 9 9 8 0 15
-2 15 -3z m-5950 -34 c0 -5 -2 -10 -4 -10 -3 0 -8 5 -11 10 -3 6 -1 10 4 10 6
0 11 -4 11 -10z m-9030 -30 c0 -4 -6 -10 -14 -13 -10 -4 -12 0 -9 14 5 18 23
18 23 -1z m14957 -12 c-3 -8 -6 -5 -6 6 -1 11 2 17 5 13 3 -3 4 -12 1 -19z
m30 0 c-3 -8 -6 -5 -6 6 -1 11 2 17 5 13 3 -3 4 -12 1 -19z m-9557 -47 c0 -6
-5 -13 -10 -16 -15 -9 -43 3 -35 15 8 13 45 13 45 1z m7780 5 c0 -3 -4 -8 -10
-11 -5 -3 -10 -1 -10 4 0 6 5 11 10 11 6 0 10 -2 10 -4z m-7923 -102 c-3 -3
-12 -4 -19 -1 -8 3 -5 6 6 6 11 1 17 -2 13 -5z m-507 -31 c0 -12 -33 -43 -47
-43 -16 0 -17 22 -1 38 13 13 48 17 48 5z m530 -28 c11 -20 11 -27 0 -40 -13
-16 -60 -21 -60 -6 0 5 -13 12 -30 16 -50 11 -34 50 25 57 41 5 50 1 65 -27z
m-5450 11 c0 -3 -4 -8 -10 -11 -5 -3 -10 -1 -10 4 0 6 5 11 10 11 6 0 10 -2
10 -4z m13607 -18 c-3 -8 -6 -5 -6 6 -1 11 2 17 5 13 3 -3 4 -12 1 -19z
m-13580 -10 c-3 -8 -6 -5 -6 6 -1 11 2 17 5 13 3 -3 4 -12 1 -19z m33 2 c0
-11 -2 -20 -4 -20 -2 0 -6 9 -9 20 -3 11 -1 20 4 20 5 0 9 -9 9 -20z m7047
-73 c9 -42 15 -79 12 -81 -2 -2 -22 -6 -44 -10 l-40 -7 33 17 c27 14 30 19 20
32 -7 8 -12 23 -10 33 2 10 -4 29 -12 42 -9 13 -13 28 -9 33 5 5 -6 -4 -24
-20 -17 -16 -29 -34 -26 -42 3 -8 -1 -14 -8 -14 -16 0 -69 -53 -69 -69 0 -6 5
-11 11 -11 5 0 7 -4 4 -10 -3 -5 -19 -10 -36 -10 -20 0 -29 5 -29 17 0 20 155
173 175 173 8 0 15 5 15 12 0 34 22 -17 37 -85z m7188 35 c-3 -3 -11 0 -18 7
-9 10 -8 11 6 5 10 -3 15 -9 12 -12z m-6705 -17 c-10 -12 -10 -15 2 -15 8 0
19 5 26 12 9 9 12 9 12 0 0 -7 -10 -17 -22 -22 -17 -7 -11 -8 21 -3 40 5 43 4
31 -9 -8 -8 -24 -13 -35 -11 -11 2 -14 0 -6 -3 11 -5 11 -8 0 -16 -22 -15 29
-4 89 20 28 12 52 17 52 12 0 -6 -4 -10 -8 -10 -5 0 -17 -6 -28 -14 -17 -13
-12 -14 49 -10 55 3 67 1 67 -11 0 -8 5 -15 11 -15 6 0 9 -7 5 -15 -5 -15 1
-15 121 0 17 2 34 1 38 -3 3 -4 23 -5 43 -3 74 6 22 -10 -62 -19 -195 -23
-331 -82 -461 -201 -48 -44 -110 -110 -137 -147 -28 -37 -63 -79 -78 -93 -40
-37 -85 -55 -96 -38 -3 5 8 12 25 15 17 4 31 11 31 16 0 6 -14 7 -32 3 -18 -4
-35 -7 -38 -8 -8 0 -43 14 -73 30 -15 8 -35 12 -43 9 -10 -4 -14 0 -12 12 2
13 -3 16 -19 14 -16 -2 -23 2 -23 13 0 9 4 14 9 11 5 -4 7 3 4 14 -4 13 3 26
18 38 16 14 22 28 21 54 -2 47 41 112 138 208 65 65 155 132 137 103 -3 -5 0
-10 7 -10 8 0 12 5 10 11 -4 11 103 73 118 68 4 -1 22 5 40 13 46 20 64 20 48
0z m7080 7 c0 -5 -7 -9 -15 -9 -8 0 -12 4 -9 9 3 4 9 8 15 8 5 0 9 -4 9 -8z
m-6807 -9 c-7 -2 -19 -2 -25 0 -7 3 -2 5 12 5 14 0 19 -2 13 -5z m-813 -7 c0
-3 -4 -8 -10 -11 -5 -3 -10 -1 -10 4 0 6 5 11 10 11 6 0 10 -2 10 -4z m867 -2
c-3 -3 -12 -4 -19 -1 -8 3 -5 6 6 6 11 1 17 -2 13 -5z m6796 -14 c3 -11 1 -18
-4 -14 -5 3 -9 12 -9 20 0 20 7 17 13 -6z m-6746 4 c-3 -3 -12 -4 -19 -1 -8 3
-5 6 6 6 11 1 17 -2 13 -5z m4453 -4 c84 -24 114 -169 47 -226 -28 -24 -69
-30 -112 -18 -30 8 -75 88 -75 134 0 48 27 97 60 109 33 12 39 13 80 1z
m-7010 -25 c0 -2 -9 -3 -19 -2 -11 0 -18 5 -15 9 4 6 34 0 34 -7z m-120 -109
c0 -5 -7 -3 -15 4 -8 7 -12 17 -9 22 7 10 24 -9 24 -26z m8697 26 c7 -4 12
-16 12 -27 0 -11 2 -46 5 -77 5 -47 4 -58 -8 -58 -8 0 -18 10 -22 23 -7 22 -7
22 -19 -6 l-11 -27 -24 25 c-13 14 -30 23 -38 20 -7 -2 -10 0 -7 5 3 6 1 10
-6 10 -7 0 -9 9 -5 28 4 15 7 35 7 45 0 11 5 15 12 10 7 -4 6 0 -2 10 -12 15
-11 17 11 17 13 0 29 -5 36 -12 9 -9 12 -8 12 5 0 18 26 23 47 9z m-5747 -12
c0 -5 -6 -10 -14 -10 -8 0 -18 5 -21 10 -3 6 3 10 14 10 12 0 21 -4 21 -10z
m80 -20 c8 -5 12 -12 9 -15 -8 -8 -39 5 -39 16 0 11 11 11 30 -1z m-3197 -295
c-3 -9 -8 -14 -10 -11 -3 3 -2 9 2 15 9 16 15 13 8 -4z m7658 -192 c-11 -28
-11 -28 -5 6 4 23 3 31 -5 27 -6 -4 -11 0 -11 11 0 16 1 16 16 1 13 -13 14
-21 5 -45z m-4012 -38 c0 -11 -9 3 -19 30 -25 62 -25 70 0 25 11 -19 19 -44
19 -55z m4566 68 c-2 -10 -4 -20 -4 -22 -1 -3 -6 0 -12 6 -6 6 -8 16 -5 22 11
17 25 13 21 -6z m733 -237 c0 -19 -3 -22 -13 -13 -8 8 -9 15 -1 24 6 7 12 12
12 13 1 0 2 -11 2 -24z m486 -11 c3 -8 1 -15 -4 -15 -6 0 -10 7 -10 15 0 8 2
15 4 15 2 0 6 -7 10 -15z m-5187 -27 c-3 -7 -5 -2 -5 12 0 14 2 19 5 13 2 -7
2 -19 0 -25z m4680 -20 c-3 -7 -5 -2 -5 12 0 14 2 19 5 13 2 -7 2 -19 0 -25z
m-4680 -85 c-3 -10 -5 -4 -5 12 0 17 2 24 5 18 2 -7 2 -21 0 -30z m2837 6 c69
-23 131 -86 121 -120 -4 -10 -1 -27 4 -38 7 -12 7 -21 1 -23 -5 -2 -10 -20
-12 -40 -1 -23 -7 -38 -15 -38 -8 0 -13 -14 -13 -40 0 -39 -1 -39 -31 -33 -25
5 -31 2 -36 -16 -3 -12 -13 -21 -24 -21 -15 0 -19 -7 -19 -35 0 -31 3 -35 28
-35 15 0 34 -5 42 -10 11 -7 12 -10 2 -10 -30 0 22 -33 65 -41 56 -11 140 -49
170 -78 12 -11 29 -21 38 -21 8 0 15 -5 15 -10 0 -6 11 -20 25 -32 14 -12 25
-26 25 -31 0 -4 14 -28 30 -52 17 -24 30 -51 30 -59 0 -16 15 -22 23 -8 2 4 2
0 -1 -8 -6 -18 -8 -37 -18 -192 -4 -65 -11 -118 -15 -118 -13 0 -35 -58 -53
-141 -21 -97 -145 -411 -159 -402 -6 4 -8 0 -4 -10 3 -8 -1 -21 -9 -28 -9 -7
-12 -20 -9 -33 5 -17 4 -18 -5 -6 -10 12 -11 11 -7 -7 3 -13 1 -26 -4 -29 -5
-3 -9 3 -9 13 -1 16 -2 16 -12 -2 -6 -11 -20 -29 -30 -39 -10 -11 -18 -23 -18
-27 0 -3 -13 -12 -30 -19 -16 -7 -30 -16 -30 -21 0 -5 -18 -12 -40 -15 -22 -4
-40 -10 -40 -15 0 -5 -54 -9 -120 -9 -81 0 -120 4 -120 11 0 6 -7 8 -16 5 -8
-3 -47 1 -86 10 -38 9 -82 14 -98 12 -20 -3 -27 -1 -23 9 3 7 1 13 -5 13 -5 0
-15 35 -21 78 -8 44 -29 114 -51 165 -21 49 -36 96 -33 105 4 14 3 14 -5 3 -8
-11 -14 -6 -26 23 -9 21 -13 43 -9 49 3 5 1 7 -4 4 -11 -7 -53 79 -53 108 0 9
-4 14 -9 11 -12 -8 -23 23 -16 45 7 21 -11 27 -18 7 -2 -7 -2 14 1 46 3 43 2
57 -7 52 -9 -6 -10 0 -5 20 5 18 3 25 -4 20 -7 -4 -8 4 -2 26 4 18 11 81 14
141 6 109 22 197 36 197 4 0 10 10 14 23 13 54 98 136 172 166 32 13 65 31 72
40 9 11 15 13 20 4 5 -8 21 -8 62 3 30 8 65 13 78 11 12 -2 22 0 22 4 0 5 10
8 23 7 13 -1 39 6 59 15 28 13 43 15 63 7 14 -5 43 -9 63 -9 l37 2 -40 6 -40
7 33 8 c38 9 33 26 -9 26 -21 0 -29 5 -29 18 0 24 -70 48 -82 29 -5 -8 -8 -5
-8 9 0 12 -7 27 -15 34 -9 7 -14 18 -12 24 3 6 -1 18 -7 26 -36 46 -43 149
-15 202 11 20 59 70 59 61 0 -3 6 0 14 6 17 14 62 29 90 30 11 1 47 -8 80 -20z
m-2321 -53 c3 -8 -1 -17 -9 -20 -9 -4 -14 1 -14 14 0 23 15 27 23 6z m5409
-388 c19 -19 19 -22 4 -63 -11 -27 -25 -45 -39 -49 -53 -16 -81 -17 -113 -1
-46 22 -46 59 -1 102 47 45 110 50 149 11z m-10902 -52 c0 -19 -48 -68 -61
-61 -10 7 -6 15 30 58 17 20 31 22 31 3z m4198 -78 c-13 -18 -26 -35 -29 -38
-4 -3 -9 -15 -13 -26 -4 -14 -29 -33 -64 -50 -31 -15 -65 -31 -74 -36 -11 -5
-18 -4 -18 1 0 5 16 15 35 21 19 6 45 25 59 41 14 16 27 29 30 29 3 0 24 20
47 45 49 53 58 57 27 13z m2427 12 c6 9 9 10 15 0 12 -20 -18 -46 -53 -45 -27
0 -32 4 -32 25 0 18 5 24 18 22 9 -2 17 3 17 9 0 7 6 5 13 -6 11 -14 16 -15
22 -5z m-2658 -185 c-40 -36 -147 -65 -226 -63 -37 1 -72 -2 -78 -5 -7 -4 -14
-3 -18 3 -3 5 -15 10 -26 10 -11 0 -18 3 -16 8 3 4 27 6 54 6 51 -2 173 19
220 37 22 8 78 22 113 28 3 0 -7 -11 -23 -24z m4835 -93 c13 -16 29 -27 35
-25 6 2 14 -1 18 -6 3 -6 -1 -11 -11 -11 -11 0 -15 -6 -11 -20 3 -11 1 -20 -5
-20 -5 0 -7 -4 -4 -9 7 -10 -27 -21 -67 -21 -29 0 -41 19 -54 84 -12 57 58 76
99 28z m-52 -133 c14 -4 45 -8 70 -8 112 -3 122 -31 11 -31 -65 0 -83 4 -106
22 -31 25 -65 91 -64 128 0 19 8 9 32 -40 23 -46 39 -66 57 -71z m-2151 17
c-2 -2 -15 -9 -29 -16 -23 -12 -24 -12 -11 3 7 10 20 17 29 17 8 0 13 -2 11
-4z m3267 -100 c8 -17 19 -38 26 -47 13 -19 3 -53 -13 -43 -6 3 -15 1 -19 -6
-7 -11 -14 -11 -39 0 -49 20 -63 62 -40 113 16 35 66 25 85 -17z m-107 -60 c1
-16 9 -38 18 -48 16 -18 16 -18 -8 -10 -27 10 -42 66 -31 112 l6 25 7 -25 c4
-14 7 -38 8 -54z m-4631 -31 c55 -22 83 -64 85 -128 4 -94 -55 -143 -160 -135
-43 4 -57 10 -75 33 -38 47 -47 68 -48 110 0 33 7 48 38 82 48 53 94 64 160
38z m1942 -56 c0 -4 -4 -11 -10 -14 -6 -4 -7 1 -3 11 5 13 3 15 -7 9 -9 -5
-11 -4 -6 4 4 6 4 18 -1 24 -4 7 0 4 10 -6 9 -11 17 -23 17 -28z m2948 -61
c-3 -7 -11 -13 -18 -13 -7 0 -15 6 -17 13 -3 7 4 12 17 12 13 0 20 -5 18 -12z
m571 -172 c11 -47 11 -60 1 -69 -10 -9 -11 -9 -6 1 4 6 3 12 -2 12 -10 0 -32
74 -32 105 0 37 26 5 39 -49z m-40 -36 c0 -10 -2 -11 -6 -2 -2 6 -8 10 -11 8
-4 -2 -8 12 -9 32 l-2 37 14 -30 c8 -16 14 -37 14 -45z m-3710 -133 c25 -27
21 -33 -42 -62 -33 -15 -40 -16 -48 -4 -14 23 -10 48 11 69 26 26 52 25 79 -3z
m5 -339 c18 -25 7 -44 -18 -35 -17 7 -23 57 -7 57 6 0 17 -10 25 -22z m-44
-34 c0 -8 -4 -12 -10 -9 -5 3 -10 10 -10 16 0 5 5 9 10 9 6 0 10 -7 10 -16z
m-70 -7 c0 -19 -10 -27 -26 -20 -11 4 -12 9 -3 19 15 18 29 18 29 1z m-50 -17
c0 -5 -4 -10 -10 -10 -5 0 -10 5 -10 10 0 6 5 10 10 10 6 0 10 -4 10 -10z
m1917 -71 c1 -30 1 -31 -6 -9 -4 14 -16 41 -26 60 l-18 35 24 -26 c15 -15 25
-39 26 -60z m-5819 3 c25 -16 29 -44 7 -62 -17 -14 -67 -1 -97 27 -22 20 -22
27 -2 47 17 18 53 13 92 -12z m6022 -277 c0 -18 16 -20 24 -2 4 9 2 -82 -4
-122 0 -2 -6 -1 -14 2 -10 4 -12 0 -9 -14 3 -10 4 -19 1 -19 -2 0 -28 25 -58
56 -30 30 -46 52 -35 48 18 -7 19 -6 5 10 -13 16 -12 18 5 16 36 -4 40 1 15
16 -22 13 -22 14 -3 9 12 -3 24 -1 28 5 10 16 45 12 45 -5z m-9026 -67 c-9
-31 -34 -68 -45 -68 -16 0 -10 31 12 61 24 35 43 38 33 7z m7725 -45 c7 -16
16 -21 28 -16 15 6 16 4 5 -9 -10 -13 -10 -17 1 -21 15 -6 21 -87 6 -87 -6 0
-7 4 -4 10 6 9 -32 85 -60 120 -7 8 -15 23 -18 32 -5 15 -4 16 13 6 10 -7 23
-22 29 -35z m1451 -288 c0 -20 -32 -35 -74 -35 -29 0 -36 4 -36 19 0 24 13 29
68 30 31 1 42 -3 42 -14z m-2216 -217 c6 -4 7 -10 3 -15 -10 -9 -27 16 -26 37
1 13 1 13 6 0 3 -8 11 -18 17 -22z m25 -110 c12 -85 8 -102 -24 -105 -39 -5
-65 8 -81 38 -14 27 -14 38 -3 78 7 25 18 49 25 54 7 4 11 14 8 22 -5 11 0 12
29 3 34 -10 34 -11 46 -90z m566 -76 c6 -4 10 -21 10 -39 0 -24 -4 -31 -17
-30 -14 1 -18 10 -18 39 0 38 6 44 25 30z m-104 -49 c-8 -15 -10 -15 -11 -2 0
17 10 32 18 25 2 -3 -1 -13 -7 -23z m2947 -185 c18 -22 19 -82 2 -86 -23 -4
-55 65 -39 84 14 17 24 18 37 2z m809 -670 c-3 -8 -6 -5 -6 6 -1 11 2 17 5 13
3 -3 4 -12 1 -19z m-11193 -146 c8 -13 -23 -52 -40 -52 -19 0 -18 19 3 42 18
20 29 23 37 10z m11080 -343 c-2 -4 11 -20 30 -36 18 -15 39 -39 46 -53 7 -14
17 -28 22 -31 5 -3 10 -43 11 -88 2 -70 0 -82 -15 -87 -10 -3 -18 -14 -18 -24
0 -20 -22 -40 -27 -24 -2 5 -27 9 -56 8 -35 -1 -58 4 -70 15 -50 44 -67 66
-63 78 3 7 -2 17 -11 22 -17 9 -24 29 -27 74 0 15 -4 27 -8 27 -12 0 17 75 37
95 24 24 82 46 101 38 8 -3 14 0 14 6 0 8 6 8 19 -1 11 -7 18 -15 15 -19z
m-5762 -253 c24 -29 23 -73 -1 -86 -28 -15 -29 -14 -61 37 -32 49 -39 88 -17
96 15 6 56 -18 79 -47z m6046 -57 c-3 -8 -7 -3 -11 10 -4 17 -3 21 5 13 5 -5
8 -16 6 -23z m-374 -184 c4 -14 13 -25 21 -25 11 0 15 -11 15 -40 0 -22 3 -40
8 -40 17 0 37 -72 42 -160 4 -52 5 -98 3 -102 -8 -16 -80 -8 -94 10 -27 31
-57 145 -64 240 l-7 92 26 0 c21 0 26 5 26 25 0 14 4 25 9 25 5 0 12 -11 15
-25z m-4236 -884 c8 -5 12 -17 10 -27 -4 -21 -62 -37 -118 -32 -27 2 -35 7
-35 23 0 32 107 59 143 36z m-6297 -443 c24 -35 59 -83 77 -108 l34 -44 -27
-23 c-14 -13 -29 -23 -33 -22 -4 0 -36 14 -72 32 -74 36 -90 59 -90 132 0 42
4 53 28 72 15 12 30 22 33 23 3 0 26 -28 50 -62z m9931 -475 c-3 -16 -10 -31
-16 -35 -16 -11 -46 -10 -46 2 0 6 9 10 20 10 13 0 20 7 20 19 0 11 6 22 13
24 6 3 13 6 13 6 1 1 -1 -11 -4 -26z m654 -380 c-10 -10 -19 5 -10 18 6 11 8
11 12 0 2 -7 1 -15 -2 -18z m-1042 -153 c-6 -6 -10 -3 -10 10 0 13 4 16 10 10
7 -7 7 -13 0 -20z m-24 -52 c0 -6 -7 -5 -15 2 -8 7 -15 17 -15 22 0 6 7 5 15
-2 8 -7 15 -17 15 -22z m1560 -38 c-8 -5 -19 -10 -25 -10 -5 0 -3 5 5 10 8 5
20 10 25 10 6 0 3 -5 -5 -10z m70 -16 c0 -14 -3 -14 -15 -4 -8 7 -15 14 -15
16 0 2 7 4 15 4 8 0 15 -7 15 -16z m-34 -64 c10 0 34 -47 34 -66 0 -7 -5 -14
-12 -16 -21 -7 12 -66 34 -60 10 2 18 -1 18 -7 0 -6 -9 -11 -20 -11 -28 0 -25
-17 5 -24 14 -4 25 -11 25 -16 0 -5 -11 -12 -25 -16 -14 -3 -25 -10 -25 -15 0
-5 -11 -9 -25 -9 -24 0 -25 3 -25 58 0 36 -6 66 -16 80 -14 20 -14 22 0 22 20
0 21 30 1 56 -8 10 -15 28 -15 38 0 18 1 18 18 3 10 -10 23 -17 28 -17z
m-1651 10 c3 -5 1 -10 -4 -10 -6 0 -11 5 -11 10 0 6 2 10 4 10 3 0 8 -4 11
-10z m1585 -50 c0 -29 -4 -40 -15 -40 -11 0 -15 11 -15 40 0 29 4 40 15 40 11
0 15 -11 15 -40z m-2565 -280 c11 -17 -15 -117 -35 -135 -20 -18 -60 -13 -60
9 0 23 28 106 40 121 14 17 46 20 55 5z"/>
<path d="M9348 17755 c-30 -35 -34 -45 -17 -45 5 0 8 4 5 8 -3 5 8 19 24 31
17 12 30 26 30 31 0 18 -14 9 -42 -25z"/>
<path d="M9198 17713 c6 -3 10 -9 6 -14 -8 -14 6 -11 21 5 12 11 10 13 -13 13
-15 0 -21 -2 -14 -4z"/>
<path d="M9193 17673 c9 -2 23 -2 30 0 6 3 -1 5 -18 5 -16 0 -22 -2 -12 -5z"/>
<path d="M9245 17613 c5 -19 3 -22 -12 -16 -16 6 -16 5 -4 -11 13 -15 15 -16
23 -2 6 10 5 23 -2 34 -9 15 -10 14 -5 -5z"/>
<path d="M9070 17378 l-22 -33 25 27 c14 15 28 24 31 21 3 -4 6 -1 6 5 0 22
-18 12 -40 -20z"/>
<path d="M10499 16863 c-13 -16 -12 -17 4 -4 16 13 21 21 13 21 -2 0 -10 -8
-17 -17z"/>
<path d="M16010 13710 c0 -5 5 -10 10 -10 6 0 10 5 10 10 0 6 -4 10 -10 10 -5
0 -10 -4 -10 -10z"/>
<path d="M16205 13570 c-3 -5 -1 -10 4 -10 6 0 11 5 11 10 0 6 -2 10 -4 10 -3
0 -8 -4 -11 -10z"/>
<path d="M16220 13516 c0 -9 5 -16 10 -16 6 0 10 4 10 9 0 6 -4 13 -10 16 -5
3 -10 -1 -10 -9z"/>
<path d="M15742 13460 c0 -14 2 -19 5 -12 2 6 2 18 0 25 -3 6 -5 1 -5 -13z"/>
<path d="M16193 13440 c0 -25 2 -35 4 -22 2 12 2 32 0 45 -2 12 -4 2 -4 -23z"/>
<path d="M11840 13579 c7 -13 14 -25 15 -27 5 -6 65 21 65 29 0 5 -13 9 -29 9
-16 0 -37 3 -46 7 -15 5 -16 3 -5 -18z"/>
<path d="M11945 13590 c11 -5 29 -8 40 -8 16 0 15 2 -5 8 -34 11 -60 11 -35 0z"/>
<path d="M6551 12954 c0 -11 3 -14 6 -6 3 7 2 16 -1 19 -3 4 -6 -2 -5 -13z"/>
<path d="M6548 12903 c5 -21 7 -23 10 -9 2 10 0 22 -6 28 -6 6 -7 0 -4 -19z"/>
<path d="M6551 12794 c0 -11 3 -14 6 -6 3 7 2 16 -1 19 -3 4 -6 -2 -5 -13z"/>
<path d="M6340 12720 c0 -26 5 -40 13 -40 8 0 12 14 12 40 0 26 -4 40 -12 40
-8 0 -13 -14 -13 -40z"/>
<path d="M6580 12741 c0 -6 4 -13 10 -16 6 -3 7 1 4 9 -7 18 -14 21 -14 7z"/>
<path d="M6060 12504 c0 -12 7 -24 15 -28 19 -7 19 5 0 30 -14 19 -14 19 -15
-2z"/>
<path d="M6100 12456 c0 -9 5 -16 10 -16 6 0 10 4 10 9 0 6 -4 13 -10 16 -5 3
-10 -1 -10 -9z"/>
<path d="M6045 12310 c-4 -7 -1 -17 6 -22 11 -7 11 -11 2 -15 -15 -6 -17 -33
-3 -33 6 0 10 6 10 13 0 8 10 19 23 24 21 11 21 11 2 19 -11 4 -23 12 -26 17
-4 5 -10 4 -14 -3z"/>
<path d="M5700 11794 c0 -6 7 -19 15 -30 8 -10 14 -14 14 -9 0 6 -6 19 -14 29
-8 11 -15 15 -15 10z"/>
<path d="M5675 11670 c-3 -5 -1 -10 4 -10 6 0 11 5 11 10 0 6 -2 10 -4 10 -3
0 -8 -4 -11 -10z"/>
<path d="M5673 11625 c-3 -9 -3 -18 -1 -21 3 -3 8 4 11 16 6 23 -1 27 -10 5z"/>
<path d="M5635 11610 c-3 -5 -1 -10 4 -10 6 0 11 5 11 10 0 6 -2 10 -4 10 -3
0 -8 -4 -11 -10z"/>
<path d="M5850 11657 c0 -5 6 -15 14 -23 8 -7 16 -19 19 -26 2 -7 8 -10 12 -6
4 4 -5 19 -19 35 -14 15 -26 24 -26 20z"/>
<path d="M5978 11533 c7 -3 16 -2 19 1 4 3 -2 6 -13 5 -11 0 -14 -3 -6 -6z"/>
<path d="M6155 11476 c11 -8 26 -16 33 -16 6 0 12 -7 12 -15 0 -8 5 -15 10
-15 6 0 10 5 10 11 0 17 -23 35 -55 43 -29 7 -29 7 -10 -8z"/>
<path d="M6240 11385 c7 -8 21 -15 31 -15 11 0 19 7 19 15 0 10 -10 15 -31 15
-27 0 -30 -2 -19 -15z"/>
<path d="M6045 10850 c-3 -5 -1 -10 4 -10 6 0 11 5 11 10 0 6 -2 10 -4 10 -3
0 -8 -4 -11 -10z"/>
<path d="M5925 10750 c-3 -5 -1 -10 4 -10 6 0 11 5 11 10 0 6 -2 10 -4 10 -3
0 -8 -4 -11 -10z"/>
<path d="M5886 10712 c-2 -4 -1 -14 5 -22 7 -12 9 -10 9 8 0 23 -5 28 -14 14z"/>
<path d="M5600 10183 c0 -6 -3 -20 -6 -30 -7 -17 -6 -17 12 -1 14 14 16 21 6
30 -8 8 -12 9 -12 1z"/>
<path d="M6313 10673 c0 -9 4 -10 14 -2 7 6 13 12 13 14 0 1 -6 2 -13 2 -8 0
-14 -6 -14 -14z"/>
<path d="M6245 10509 c-4 -6 -5 -12 -2 -15 2 -3 7 2 10 11 7 17 1 20 -8 4z"/>
<path d="M7685 9590 c-3 -6 1 -7 9 -4 18 7 21 14 7 14 -6 0 -13 -4 -16 -10z"/>
<path d="M9255 9030 c-3 -6 1 -7 9 -4 18 7 21 14 7 14 -6 0 -13 -4 -16 -10z"/>
<path d="M9130 8990 c-8 -5 -10 -10 -5 -10 6 0 17 5 25 10 8 5 11 10 5 10 -5
0 -17 -5 -25 -10z"/>
<path d="M9406 8962 c-3 -6 -1 -14 5 -17 15 -10 25 3 12 16 -7 7 -13 7 -17 1z"/>
<path d="M9049 8773 c-13 -17 -13 -17 6 -3 11 8 22 16 24 17 2 2 0 3 -6 3 -6
0 -17 -8 -24 -17z"/>
<path d="M13740 7730 c0 -5 5 -10 11 -10 5 0 7 5 4 10 -3 6 -8 10 -11 10 -2 0
-4 -4 -4 -10z"/>
<path d="M4955 19120 c3 -5 8 -10 11 -10 2 0 4 5 4 10 0 6 -5 10 -11 10 -5 0
-7 -4 -4 -10z"/>
<path d="M3330 18340 c-9 -6 -10 -10 -3 -10 6 0 15 5 18 10 8 12 4 12 -15 0z"/>
<path d="M3255 18271 c-3 -5 -1 -12 5 -16 5 -3 10 1 10 9 0 18 -6 21 -15 7z"/>
<path d="M10000 15689 c36 -16 49 -18 64 -9 14 9 24 9 42 -1 27 -14 32 -29 10
-29 -8 0 -16 7 -20 15 -3 8 -10 15 -15 15 -6 0 -8 -7 -4 -16 3 -9 0 -20 -8
-26 -10 -7 -7 -8 11 -4 14 3 42 6 62 6 30 0 36 3 31 16 -4 12 0 14 22 8 25 -6
26 -5 13 15 -10 16 -23 21 -54 21 -22 0 -77 2 -120 5 l-79 5 45 -21z"/>
<path d="M10319 15663 c-13 -16 -12 -17 4 -4 9 7 17 15 17 17 0 8 -8 3 -21
-13z"/>
<path d="M10366 15672 c-3 -5 1 -9 9 -9 8 0 12 4 9 9 -3 4 -7 8 -9 8 -2 0 -6
-4 -9 -8z"/>
<path d="M2592 15545 c1 -63 5 -112 10 -109 11 7 10 224 -2 224 -5 0 -9 -48
-8 -115z"/>
<path d="M9975 15600 c3 -5 19 -10 35 -10 16 0 32 5 35 10 4 6 -10 10 -35 10
-25 0 -39 -4 -35 -10z"/>
<path d="M10461 15520 c-19 -5 -40 -6 -48 -3 -7 3 -23 -1 -36 -9 -12 -8 -40
-21 -62 -28 -22 -7 -45 -17 -52 -22 -7 -5 -17 -7 -23 -3 -5 3 -10 2 -10 -3 0
-11 -99 -44 -111 -36 -5 3 -9 0 -9 -7 0 -8 -4 -8 -15 1 -9 7 -18 10 -22 6 -3
-3 -1 -6 5 -6 7 0 12 -5 12 -11 0 -5 -4 -8 -9 -4 -5 3 -12 1 -16 -5 -4 -6 -10
-8 -15 -5 -4 3 -7 -6 -6 -19 2 -16 -2 -23 -13 -22 -10 1 -15 -6 -13 -17 4 -25
-26 -57 -54 -57 -32 0 -55 -11 -48 -22 4 -6 -3 -18 -15 -27 -27 -21 -20 -45
19 -61 29 -12 53 -44 24 -33 -28 11 -13 -4 38 -38 l53 -33 -60 -12 -60 -11 55
-1 c30 0 69 -6 85 -12 l30 -12 -30 -24 -30 -24 32 11 c27 9 36 7 67 -13 41
-27 42 -29 19 -66 l-18 -27 28 18 c27 17 30 17 53 2 15 -10 23 -22 20 -31 -18
-43 -17 -48 3 -25 l21 23 35 -26 c38 -29 43 -47 20 -66 -8 -7 -12 -16 -9 -22
8 -12 34 10 34 28 0 18 4 17 40 -1 17 -9 30 -13 30 -10 0 4 12 -3 26 -14 15
-12 32 -21 38 -21 15 0 46 -53 46 -79 0 -12 5 -21 10 -21 6 0 10 9 10 20 0 41
47 7 61 -44 5 -20 14 -36 19 -36 15 0 12 28 -2 33 -7 2 -10 8 -6 12 15 16 121
-52 201 -128 45 -43 90 -85 99 -94 21 -19 52 -12 90 19 32 26 78 171 78 243 0
40 1 42 31 43 17 0 42 -3 55 -8 14 -6 26 -6 29 0 4 6 2 10 -3 10 -5 0 -15 12
-21 28 -12 30 5 97 29 112 11 7 11 11 1 24 -10 12 -10 16 -2 16 7 0 10 4 6 9
-3 5 -1 12 5 16 13 8 5 66 -11 76 -9 6 0 9 27 9 44 0 55 5 48 24 -3 7 -21 11
-47 10 -37 -2 -40 -1 -23 12 10 7 23 15 29 17 7 2 7 13 0 33 -7 19 -7 37 -1
47 6 11 5 17 -2 17 -5 0 -10 8 -10 18 0 10 -6 24 -12 31 -11 11 -10 13 5 7 15
-5 13 0 -8 25 -16 19 -22 35 -16 38 6 4 1 13 -12 20 -20 13 -21 13 -8 -2 22
-27 -1 -19 -39 14 -31 27 -32 29 -5 12 l30 -18 -20 26 c-11 15 -24 24 -29 21
-5 -3 -7 2 -3 10 7 20 -27 53 -44 42 -8 -4 -10 -3 -5 4 4 7 1 12 -8 12 -9 0
-16 4 -16 8 0 4 -21 14 -46 21 -25 8 -51 19 -57 26 -8 8 -20 10 -34 4 -21 -8
-27 -5 -24 13 0 4 -5 5 -13 2 -8 -3 -33 4 -55 16 -23 11 -46 18 -50 15 -5 -2
-25 2 -45 10 -38 16 -175 19 -235 5z m624 -168 c-3 -3 -11 0 -18 7 -9 10 -8
11 6 5 10 -3 15 -9 12 -12z m-808 -338 c10 -28 -11 -34 -45 -13 -36 23 -40 36
-14 42 22 5 51 -10 59 -29z m-87 -14 c0 -5 -2 -10 -4 -10 -3 0 -8 5 -11 10 -3
6 -1 10 4 10 6 0 11 -4 11 -10z m240 -10 c40 -40 14 -110 -41 -110 -56 0 -91
68 -51 102 36 32 65 35 92 8z m380 -39 c17 -15 33 -37 34 -47 2 -13 11 -18 27
-17 23 3 23 2 5 -12 -11 -8 -15 -15 -10 -15 23 0 43 -106 44 -225 0 -44 0 -94
0 -110 0 -19 -7 -34 -19 -42 -17 -11 -23 -8 -45 20 -38 47 -34 44 -121 100
-70 47 -81 57 -92 96 -16 54 -3 76 38 67 18 -3 32 1 42 12 19 21 42 92 51 155
4 26 9 47 11 47 2 0 18 -13 35 -29z m-247 -123 c18 -15 38 -33 45 -39 11 -9
11 -14 2 -23 -9 -8 -16 -5 -27 12 -9 12 -21 22 -27 22 -6 0 -23 11 -37 24 -16
15 -35 23 -52 21 -29 -3 -40 5 -29 21 20 30 60 18 125 -38z"/>
<path d="M2060 15496 c0 -9 5 -16 10 -16 6 0 10 4 10 9 0 6 -4 13 -10 16 -5 3
-10 -1 -10 -9z"/>
<path d="M2125 15501 c-5 -10 -4 -16 3 -19 18 -6 15 -82 -3 -82 -11 0 -15 -11
-15 -40 0 -29 4 -40 15 -40 8 0 15 -4 15 -8 0 -11 -85 -72 -99 -72 -17 0 -13
18 7 30 16 10 16 10 0 20 -22 13 -23 30 -3 30 9 0 12 6 8 16 -3 9 -9 11 -12 6
-3 -5 -19 -12 -36 -16 -26 -7 -27 -9 -12 -17 21 -12 23 -47 3 -55 -24 -9 -6
-34 24 -34 25 0 29 -4 33 -32 l4 -33 1 33 c2 30 4 32 42 32 33 0 40 3 40 20 0
17 7 20 50 20 l50 0 0 70 0 70 -35 0 c-34 0 -35 1 -35 40 0 28 -4 40 -14 40
-8 0 -16 8 -18 18 -3 14 -5 15 -13 3z"/>
<path d="M1966 15465 c4 -8 8 -15 10 -15 2 0 4 7 4 15 0 8 -4 15 -10 15 -5 0
-7 -7 -4 -15z"/>
<path d="M2550 15459 c0 -11 5 -17 10 -14 6 3 10 13 10 21 0 8 -4 14 -10 14
-5 0 -10 -9 -10 -21z"/>
<path d="M2541 15414 c0 -11 3 -14 6 -6 3 7 2 16 -1 19 -3 4 -6 -2 -5 -13z"/>
<path d="M2300 15330 c0 -40 4 -70 10 -70 6 0 10 14 10 30 0 27 3 30 30 30 28
0 30 2 30 40 l0 40 -40 0 -40 0 0 -70z"/>
<path d="M2460 15360 c0 -22 5 -40 10 -40 6 0 10 18 10 40 0 22 -4 40 -10 40
-5 0 -10 -18 -10 -40z"/>
<path d="M9990 15320 c0 -5 5 -10 11 -10 5 0 7 5 4 10 -3 6 -8 10 -11 10 -2 0
-4 -4 -4 -10z"/>
<path d="M11251 15304 c0 -11 3 -14 6 -6 3 7 2 16 -1 19 -3 4 -6 -2 -5 -13z"/>
<path d="M11280 15251 c0 -11 41 -63 46 -58 6 6 -29 67 -38 67 -5 0 -8 -4 -8
-9z"/>
<path d="M2140 15180 c0 -11 5 -20 10 -20 6 0 10 9 10 20 0 11 -4 20 -10 20
-5 0 -10 -9 -10 -20z"/>
<path d="M2080 15106 c0 -30 -4 -58 -10 -61 -5 -3 -10 -33 -10 -66 0 -33 -4
-59 -10 -59 -5 0 -10 18 -10 40 0 33 -3 40 -20 40 -17 0 -20 -7 -20 -40 0 -22
-4 -40 -10 -40 -5 0 -10 -8 -10 -17 0 -14 -2 -15 -12 -4 -10 11 -10 14 0 18 7
3 12 23 12 50 0 37 -3 44 -16 39 -9 -3 -20 -6 -25 -6 -5 0 -9 -16 -9 -36 0
-19 -5 -45 -12 -57 -11 -21 -11 -21 -19 -2 -5 15 -8 8 -8 -22 -1 -36 -4 -43
-21 -43 -17 0 -20 -7 -20 -40 0 -29 -4 -40 -15 -40 -11 0 -15 11 -15 40 0 22
-4 40 -10 40 -6 0 -10 -33 -10 -78 0 -58 -5 -86 -20 -115 -12 -21 -20 -56 -20
-82 0 -39 -3 -45 -21 -45 -18 0 -20 -6 -19 -52 0 -29 -3 -73 -7 -98 -6 -36
-12 -46 -30 -48 l-23 -3 0 -210 c0 -172 2 -209 14 -209 8 0 16 7 20 15 6 17
46 21 46 5 0 -18 20 -11 20 8 1 15 2 15 16 -3 13 -17 16 -18 24 -5 5 8 10 17
10 20 0 3 20 14 45 25 25 11 45 25 45 32 0 6 9 15 20 18 15 5 19 12 15 26 -4
11 -1 26 5 34 18 22 25 196 8 207 -10 6 -5 15 20 37 28 24 32 34 32 74 0 29
-4 47 -12 47 -6 0 -4 7 5 18 21 23 22 42 2 42 -8 0 -15 5 -15 10 0 6 14 10 30
10 28 0 30 2 30 40 0 25 -5 40 -12 40 -7 1 -3 9 10 19 12 11 22 26 22 35 0 10
12 19 30 23 33 6 39 23 15 43 -18 15 -20 37 -3 42 9 3 12 41 11 139 -1 102 2
139 13 157 8 12 10 22 4 22 -5 0 -10 18 -10 40 0 33 -3 40 -20 40 -18 0 -20
-7 -20 -54z m-160 -910 c0 -3 -4 -8 -10 -11 -5 -3 -10 -1 -10 4 0 6 5 11 10
11 6 0 10 -2 10 -4z"/>
<path d="M3638 15063 c7 -3 16 -2 19 1 4 3 -2 6 -13 5 -11 0 -14 -3 -6 -6z"/>
<path d="M3704 14996 c-3 -13 -4 -37 -1 -52 3 -22 4 -19 6 14 0 23 6 42 11 42
6 0 10 5 10 10 0 20 -20 9 -26 -14z"/>
<path d="M11835 14980 c-3 -5 1 -10 10 -10 9 0 13 5 10 10 -3 6 -8 10 -10 10
-2 0 -7 -4 -10 -10z"/>
<path d="M2141 14803 c0 -23 -7 -43 -13 -46 -10 -3 -10 -7 -1 -17 9 -10 13 -5
18 22 4 20 5 46 2 59 -3 15 -5 8 -6 -18z"/>
<path d="M15470 14820 c0 -11 7 -20 15 -20 8 0 15 9 15 20 0 11 -7 20 -15 20
-8 0 -15 -9 -15 -20z"/>
<path d="M15510 14820 c0 -13 7 -20 20 -20 13 0 20 7 20 20 0 13 -7 20 -20 20
-13 0 -20 -7 -20 -20z"/>
<path d="M15600 14820 c0 -13 7 -20 20 -20 13 0 20 7 20 20 0 13 -7 20 -20 20
-13 0 -20 -7 -20 -20z"/>
<path d="M15660 14810 c0 -5 5 -10 11 -10 5 0 7 5 4 10 -3 6 -8 10 -11 10 -2
0 -4 -4 -4 -10z"/>
<path d="M3698 14775 c-3 -14 -1 -25 3 -25 5 0 9 11 9 25 0 14 -2 25 -4 25 -2
0 -6 -11 -8 -25z"/>
<path d="M15420 14719 c0 -18 3 -20 28 -13 15 5 69 8 120 7 76 -2 92 0 92 12
0 12 -21 15 -120 15 -115 0 -120 -1 -120 -21z"/>
<path d="M2460 14705 c0 -14 5 -25 10 -25 6 0 10 11 10 25 0 14 -4 25 -10 25
-5 0 -10 -11 -10 -25z"/>
<path d="M2360 14670 c0 -5 5 -10 10 -10 6 0 10 5 10 10 0 6 -4 10 -10 10 -5
0 -10 -4 -10 -10z"/>
<path d="M1724 14559 c-3 -6 -1 -16 5 -22 8 -8 11 -5 11 11 0 24 -5 28 -16 11z"/>
<path d="M2367 14546 c-4 -10 -5 -21 -2 -24 9 -9 17 6 13 25 -3 17 -4 17 -11
-1z"/>
<path d="M2381 14424 c0 -11 3 -14 6 -6 3 7 2 16 -1 19 -3 4 -6 -2 -5 -13z"/>
<path d="M12085 14299 c-4 -6 -5 -12 -2 -15 2 -3 7 2 10 11 7 17 1 20 -8 4z"/>
<path d="M12090 14254 c0 -8 5 -12 10 -9 6 3 10 10 10 16 0 5 -4 9 -10 9 -5 0
-10 -7 -10 -16z"/>
<path d="M12034 14218 c-4 -6 -8 -23 -9 -38 -1 -22 3 -26 27 -28 18 -2 27 2
23 8 -3 5 -1 10 4 10 17 0 13 25 -7 43 -22 20 -28 21 -38 5z"/>
<path d="M9708 13933 c7 -3 16 -2 19 1 4 3 -2 6 -13 5 -11 0 -14 -3 -6 -6z"/>
<path d="M11055 13920 c-3 -6 1 -7 9 -4 18 7 21 14 7 14 -6 0 -13 -4 -16 -10z"/>
<path d="M12420 13566 c0 -9 5 -16 10 -16 6 0 10 4 10 9 0 6 -4 13 -10 16 -5
3 -10 -1 -10 -9z"/>
<path d="M12450 13460 c0 -5 5 -10 10 -10 6 0 10 5 10 10 0 6 -4 10 -10 10 -5
0 -10 -4 -10 -10z"/>
<path d="M2095 13201 c-28 -6 -50 -41 -25 -41 6 0 8 5 5 10 -4 6 8 10 29 10
25 0 36 4 36 15 0 8 -3 14 -7 14 -5 -1 -21 -4 -38 -8z"/>
<path d="M15096 13175 c-4 -11 1 -15 19 -15 28 0 33 15 9 24 -21 8 -21 8 -28
-9z"/>
<path d="M1660 12915 l1 -255 60 0 c82 0 139 19 136 45 -1 14 5 21 21 23 19 3
23 9 20 35 -4 36 -27 48 -35 18 -9 -35 -23 -24 -23 19 0 22 -4 40 -10 40 -5 0
-10 13 -10 29 0 21 6 31 23 36 20 6 20 8 4 12 -14 4 -17 10 -12 26 9 29 26
106 30 135 2 17 -2 22 -18 22 -11 0 -18 3 -14 6 17 18 -51 49 -126 58 l-48 6
1 -255z m160 -205 c0 -24 -4 -30 -21 -30 -50 0 -81 44 -36 53 52 10 57 8 57
-23z"/>
<path d="M14525 13030 c3 -5 8 -10 11 -10 2 0 4 5 4 10 0 6 -5 10 -11 10 -5 0
-7 -4 -4 -10z"/>
<path d="M1860 12991 c0 -6 5 -13 10 -16 6 -3 10 1 10 9 0 9 -4 16 -10 16 -5
0 -10 -4 -10 -9z"/>
<path d="M14851 12968 c-1 -26 10 -48 25 -48 18 0 18 17 0 27 -7 4 -16 15 -19
23 -4 12 -6 12 -6 -2z"/>
<path d="M14940 12935 c0 -9 9 -15 21 -15 18 0 19 2 9 15 -7 8 -16 15 -21 15
-5 0 -9 -7 -9 -15z"/>
<path d="M14738 12923 c7 -3 16 -2 19 1 4 3 -2 6 -13 5 -11 0 -14 -3 -6 -6z"/>
<path d="M14780 12910 c0 -5 -10 -10 -22 -10 -19 0 -20 -2 -8 -10 21 -13 23
-13 38 10 7 12 8 20 2 20 -5 0 -10 -4 -10 -10z"/>
<path d="M14850 12855 c-11 -13 -9 -15 15 -15 16 0 25 5 23 12 -7 19 -24 20
-38 3z"/>
<path d="M14760 12830 c6 -11 13 -20 15 -20 3 0 5 9 5 20 0 11 -7 20 -15 20
-13 0 -14 -4 -5 -20z"/>
<path d="M14792 12828 c7 -19 38 -22 38 -4 0 10 -9 16 -21 16 -12 0 -19 -5
-17 -12z"/>
<path d="M14735 12770 c-3 -5 -1 -10 4 -10 6 0 11 5 11 10 0 6 -2 10 -4 10 -3
0 -8 -4 -11 -10z"/>
<path d="M2800 12474 c0 -8 5 -12 10 -9 6 4 8 11 5 16 -9 14 -15 11 -15 -7z"/>
<path d="M13971 12074 c0 -11 3 -14 6 -6 3 7 2 16 -1 19 -3 4 -6 -2 -5 -13z"/>
<path d="M17308 11873 c6 -2 18 -2 25 0 6 3 1 5 -13 5 -14 0 -19 -2 -12 -5z"/>
<path d="M13600 11850 c0 -5 5 -10 10 -10 6 0 10 5 10 10 0 6 -4 10 -10 10 -5
0 -10 -4 -10 -10z"/>
<path d="M14817 11830 c-16 -22 -16 -25 -1 -28 21 -5 26 2 22 30 l-3 23 -18
-25z"/>
<path d="M13644 11699 c-3 -6 -1 -16 5 -22 8 -8 11 -5 11 11 0 24 -5 28 -16
11z"/>
<path d="M14140 11656 c0 -9 5 -16 10 -16 6 0 10 4 10 9 0 6 -4 13 -10 16 -5
3 -10 -1 -10 -9z"/>
<path d="M13700 11650 c0 -5 5 -10 11 -10 5 0 7 5 4 10 -3 6 -8 10 -11 10 -2
0 -4 -4 -4 -10z"/>
<path d="M14897 11441 c-26 -4 -55 -15 -64 -24 -16 -16 -14 -17 39 -17 61 0
111 16 105 34 -5 14 -20 15 -80 7z m43 -21 c0 -5 -18 -10 -40 -10 -22 0 -40 5
-40 10 0 6 18 10 40 10 22 0 40 -4 40 -10z"/>
<path d="M15340 11425 c0 -14 4 -25 9 -25 5 0 11 -9 14 -21 6 -24 30 -21 35 4
2 10 -3 17 -12 17 -14 0 -21 18 -17 43 0 4 -6 7 -14 7 -9 0 -15 -9 -15 -25z"/>
<path d="M15180 11389 c0 -5 5 -7 10 -4 6 3 10 8 10 11 0 2 -4 4 -10 4 -5 0
-10 -5 -10 -11z"/>
<path d="M15338 11350 c-1 -5 -22 -11 -46 -13 -66 -6 -62 -17 6 -17 47 0 62 3
62 14 0 18 -17 30 -22 16z"/>
<path d="M15020 11330 c0 -5 5 -10 11 -10 5 0 7 5 4 10 -3 6 -8 10 -11 10 -2
0 -4 -4 -4 -10z"/>
<path d="M15500 11225 c0 -8 4 -15 9 -15 5 0 11 7 15 15 3 9 0 15 -9 15 -8 0
-15 -7 -15 -15z"/>
<path d="M15550 11076 c0 -2 7 -6 15 -10 8 -3 15 -1 15 4 0 6 -7 10 -15 10 -8
0 -15 -2 -15 -4z"/>
<path d="M2302 11005 c0 -16 2 -22 5 -12 2 9 2 23 0 30 -3 6 -5 -1 -5 -18z"/>
<path d="M2306 10953 c-6 -14 -5 -15 5 -6 7 7 10 15 7 18 -3 3 -9 -2 -12 -12z"/>
<path d="M2263 10877 c-1 -38 0 -39 8 -13 4 16 5 35 1 43 -5 7 -8 -5 -9 -30z"/>
<path d="M2231 10884 c0 -11 3 -14 6 -6 3 7 2 16 -1 19 -3 4 -6 -2 -5 -13z"/>
<path d="M2230 10786 c0 -8 4 -17 9 -20 5 -4 7 3 4 14 -6 23 -13 26 -13 6z"/>
<path d="M14381 10324 c0 -11 3 -14 6 -6 3 7 2 16 -1 19 -3 4 -6 -2 -5 -13z"/>
<path d="M16580 10250 c0 -5 7 -10 15 -10 8 0 15 5 15 10 0 6 -7 10 -15 10 -8
0 -15 -4 -15 -10z"/>
<path d="M15731 9894 c0 -11 3 -14 6 -6 3 7 2 16 -1 19 -3 4 -6 -2 -5 -13z"/>
<path d="M15382 9430 c0 -14 2 -19 5 -12 2 6 2 18 0 25 -3 6 -5 1 -5 -13z"/>
<path d="M15396 9405 c-3 -9 -6 -22 -5 -28 0 -7 5 -1 10 12 5 13 8 26 5 28 -2
2 -6 -3 -10 -12z"/>
<path d="M14460 9299 c0 -11 5 -17 10 -14 6 3 10 13 10 21 0 8 -4 14 -10 14
-5 0 -10 -9 -10 -21z"/>
<path d="M16940 9300 c0 -23 10 -26 28 -8 18 18 15 28 -8 28 -13 0 -20 -7 -20
-20z"/>
<path d="M16992 9268 c-18 -18 -15 -28 8 -28 13 0 20 7 20 20 0 23 -10 26 -28
8z"/>
<path d="M14541 8944 c0 -11 3 -14 6 -6 3 7 2 16 -1 19 -3 4 -6 -2 -5 -13z"/>
<path d="M14555 8919 c-4 -6 -5 -12 -2 -15 2 -3 7 2 10 11 7 17 1 20 -8 4z"/>
<path d="M11091 7914 c0 -11 3 -14 6 -6 3 7 2 16 -1 19 -3 4 -6 -2 -5 -13z"/>
<path d="M17228 5135 c-3 -14 -1 -28 3 -31 5 -3 9 9 9 25 0 38 -6 40 -12 6z"/>
<path d="M17251 5024 c0 -11 3 -14 6 -6 3 7 2 16 -1 19 -3 4 -6 -2 -5 -13z"/>
<path d="M16245 318 c-3 -8 -5 -21 -3 -29 2 -9 -5 -13 -21 -11 -25 2 -81 -18
-81 -30 0 -4 18 -13 40 -19 37 -11 55 -29 29 -29 -17 0 15 -27 37 -32 11 -2
20 -13 22 -26 4 -28 32 -29 32 -1 0 12 5 19 13 16 6 -2 11 -12 11 -21 -1 -9 2
-16 7 -16 5 0 9 -12 9 -27 0 -16 4 -35 9 -42 8 -12 11 -9 16 11 l7 26 51 -18
c43 -15 53 -23 55 -44 l3 -26 104 0 104 0 4 63 3 62 2 -62 c3 -100 17 -73 19
37 l2 100 -27 0 c-16 0 -33 5 -39 11 -5 5 -25 12 -43 14 -19 3 -37 9 -40 15
-4 7 -21 9 -42 5 -30 -6 -38 -3 -52 16 -9 13 -16 18 -16 11 0 -17 -46 -15 -63
3 -9 8 -17 11 -19 7 -2 -4 -21 -3 -43 4 -22 7 -32 13 -22 13 9 1 17 6 17 11 0
6 -8 10 -17 10 -10 0 -28 3 -40 6 -15 4 -25 1 -28 -8z"/>
<path d="M16205 311 c-3 -5 -1 -12 5 -16 5 -3 10 1 10 9 0 18 -6 21 -15 7z"/>
<path d="M17545 90 c-3 -5 3 -10 14 -10 12 0 21 5 21 10 0 6 -6 10 -14 10 -8
0 -18 -4 -21 -10z"/>
</g>
</svg>
