<?xml version="1.0" encoding="UTF-8" standalone="no"?>
<!-- Created with Inkscape (http://www.inkscape.org/) -->

<svg
   width="120"
   height="120"
   viewBox="0 0 31.75 31.75"
   version="1.1"
   id="svg5"
   inkscape:version="1.1.2 (b8e25be833, 2022-02-05)"
   sodipodi:docname="default_avatar.svg"
   xmlns:inkscape="http://www.inkscape.org/namespaces/inkscape"
   xmlns:sodipodi="http://sodipodi.sourceforge.net/DTD/sodipodi-0.dtd"
   xmlns="http://www.w3.org/2000/svg"
   xmlns:svg="http://www.w3.org/2000/svg">
  <sodipodi:namedview
     id="namedview7"
     pagecolor="#505050"
     bordercolor="#eeeeee"
     borderopacity="1"
     inkscape:pageshadow="0"
     inkscape:pageopacity="0"
     inkscape:pagecheckerboard="0"
     inkscape:document-units="mm"
     showgrid="false"
     units="px"
     inkscape:zoom="3.6233469"
     inkscape:cx="73.136801"
     inkscape:cy="49.677827"
     inkscape:window-width="1680"
     inkscape:window-height="987"
     inkscape:window-x="-8"
     inkscape:window-y="-8"
     inkscape:window-maximized="1"
     inkscape:current-layer="layer1" />
  <defs
     id="defs2" />
  <g
     inkscape:label="Слой 1"
     inkscape:groupmode="layer"
     id="layer1">
    <path
       style="fill:#ff7412;fill-opacity:1;stroke:#000000;stroke-width:0.526642;stroke-linecap:butt;stroke-linejoin:miter;stroke-miterlimit:4;stroke-dasharray:none;stroke-opacity:1"
       d="m 0.31848865,19.561607 c 0,0 -0.27200617,-7.365456 5.40096295,-10.3064221 4.3160364,-2.2375105 13.6134134,-2.323752 16.5396034,0.7872961 1.712572,1.820755 2.662456,5.439499 2.662456,5.439499 0,0 6.671054,0.688251 6.618072,5.224783 -0.07606,6.513087 -7.835197,7.586672 -15.670403,7.371952 C 5.5886246,27.79699 0.24241896,23.498087 0.31848865,19.561607 Z"
       id="path1511"
       sodipodi:nodetypes="csscssc" />
    <ellipse
       style="fill:#ffffff;fill-opacity:1;stroke:#000000;stroke-width:0.526642;stroke-linecap:round;stroke-linejoin:round;stroke-miterlimit:4;stroke-dasharray:none;stroke-opacity:1"
       id="path4864"
       cx="18.801228"
       cy="13.981073"
       rx="3.4595094"
       ry="3.2549706" />
    <ellipse
       style="fill:#000000;fill-opacity:1;stroke:#000000;stroke-width:0.526642;stroke-linecap:round;stroke-linejoin:round;stroke-miterlimit:4;stroke-dasharray:none;stroke-opacity:1"
       id="circle5056"
       cx="18.455282"
       cy="13.981073"
       rx="0.9711349"
       ry="0.91371781" />
    <ellipse
       style="fill:#ffffff;fill-opacity:1;stroke:#000000;stroke-width:0.526642;stroke-linecap:round;stroke-linejoin:round;stroke-miterlimit:4;stroke-dasharray:none;stroke-opacity:1"
       id="circle5130"
       cx="-10.181284"
       cy="14.008199"
       transform="scale(-1,1)"
       rx="3.4595094"
       ry="3.2549706" />
    <ellipse
       style="fill:#000000;fill-opacity:1;stroke:#000000;stroke-width:0.526642;stroke-linecap:round;stroke-linejoin:round;stroke-miterlimit:4;stroke-dasharray:none;stroke-opacity:1"
       id="circle5132"
       cx="-10.527229"
       cy="14.008199"
       transform="scale(-1,1)"
       rx="0.9711349"
       ry="0.91371781" />
    <path
       style="fill:none;stroke:#000000;stroke-width:0.526642;stroke-linecap:round;stroke-linejoin:round;stroke-miterlimit:4;stroke-dasharray:none;stroke-opacity:1"
       d="m 12.993528,21.584425 c 1.790946,0.928109 3.359112,1.672162 6.23959,-0.303659"
       id="path5375"
       sodipodi:nodetypes="cc" />
    <path
       style="fill:#4ac2e4;fill-opacity:1;stroke:#000000;stroke-width:0.526642;stroke-linecap:butt;stroke-linejoin:miter;stroke-miterlimit:4;stroke-dasharray:none;stroke-opacity:1"
       d="m 8.8665215,25.582559 c 4.1710195,-1.99185 9.0402295,7.19513 13.1358335,5.111545 2.224889,-1.131882 1.934708,-5.26993 -0.457464,-6.174338 -4.451842,-1.683112 -7.944779,8.701285 -12.6783695,6.781645 -2.1806935,-0.884342 -2.0952559,-4.718269 0,-5.718852 z"
       id="path5956"
       sodipodi:nodetypes="aassa" />
    <path
       style="fill:#f9b6ba;fill-opacity:1;stroke:#000000;stroke-width:0.526642;stroke-linecap:butt;stroke-linejoin:miter;stroke-miterlimit:4;stroke-dasharray:none;stroke-opacity:1"
       d="M 7.4575353,7.9687169 C 8.5558472,10.226814 20.069656,8.5772295 17.268127,7.118576 15.936414,6.4252043 7.904844,6.268607 7.4575353,7.9687169 Z"
       id="path7145"
       sodipodi:nodetypes="csc" />
    <path
       style="fill:#f9b6ba;fill-opacity:1;stroke:#000000;stroke-width:0.526642;stroke-linecap:butt;stroke-linejoin:miter;stroke-miterlimit:4;stroke-dasharray:none;stroke-opacity:1"
       d="M 8.6126228,7.044435 C 9.2212886,8.3220945 16.046927,8.6599231 16.089621,6.7906073 L 16.230699,0.61407444 C 13.503238,0.14917733 10.775778,0.20337448 8.0483181,0.95251388 Z"
       id="path8668"
       sodipodi:nodetypes="csccc" />
  </g>
</svg>
